<?xml version="1.0" encoding="UTF-8"?>
<svg id="Layer_1" xmlns="http://www.w3.org/2000/svg" version="1.1" viewBox="0 0 111 34">
  <!-- Generator: Adobe Illustrator 29.6.1, SVG Export Plug-In . SVG Version: 2.1.1 Build 9)  -->
  <defs>
    <style>
      .st0, .st1 {
        fill: #fff;
      }

      .st1 {
        fill-rule: evenodd;
      }

      .st2 {
        fill: #46b3f0;
      }
    </style>
  </defs>
  <path class="st2" d="M0,14.79C0,7.12,6.22.9,13.89.9h77c7.67,0,13.89,6.22,13.89,13.89s-6.22,13.89-13.89,13.89H13.89C6.22,28.69,0,22.47,0,14.79Z"/>
  <path class="st1" d="M9.18,19.63h0s0,0,0,0c0,0,.01-.02.02-.03.02-.03.05-.06.09-.11.08-.1.18-.25.29-.42.2-.32.4-.71.5-1.12-.63-.89-1-1.98-1-3.16,0-3.04,2.46-5.5,5.5-5.5s5.5,2.46,5.5,5.5-2.46,5.5-5.5,5.5c-.69,0-1.35-.13-1.95-.36-.62.23-1.38.32-1.98.35-.33.02-.63.02-.84.02-.11,0-.19,0-.25,0-.03,0-.05,0-.07,0h-.02s0,0,0,0h0s.02-.39.02-.39q-.02.39-.02.39c-.15,0-.28-.1-.34-.24-.06-.14-.03-.3.06-.41ZM12.03,14.13c-.36,0-.66.29-.66.66s.29.66.66.66h0c.36,0,.66-.29.66-.66s-.29-.66-.66-.66h0ZM14.58,14.13c-.36,0-.66.29-.66.66s.29.66.66.66h0c.36,0,.66-.29.66-.66s-.29-.66-.66-.66h0ZM17.13,14.13c-.36,0-.66.29-.66.66s.29.66.66.66h0c.36,0,.66-.29.66-.66s-.29-.66-.66-.66h0Z"/>
  <path class="st2" d="M108.59,25.85l1.77,6.6c.27.76-.45,1.5-1.22,1.23l-6.72-1.68c-1.22-.42-1.32-2.1-.16-2.66l.72-.35c1.18-.57,2.14-1.54,2.7-2.73l.26-.54c.55-1.16,2.22-1.08,2.66.12Z"/>
  <g>
    <path class="st0" d="M27.94,17.45c.14-.61.3-1.22.47-1.84.17-.62.34-1.23.51-1.84.07-.25.13-.48.18-.69s.1-.4.13-.56c.04-.17.06-.32.08-.46.02-.14.03-.26.03-.38v-.07s0-.06,0-.1c-.04,0-.12.02-.24.06s-.27.09-.45.16c-.17.07-.35.14-.54.22-.19.08-.36.17-.53.25-.13.07-.24.12-.32.17-.09.04-.16.08-.22.1-.06.02-.12.04-.17.05-.05,0-.1.01-.16.01-.11,0-.21-.04-.29-.13-.08-.09-.12-.2-.12-.34,0-.08,0-.15.02-.21s.04-.11.08-.16c.04-.05.08-.09.14-.13.06-.04.13-.09.21-.13.93-.48,1.87-.84,2.81-1.06.95-.23,1.9-.34,2.86-.34.08,0,.17,0,.27,0,.11,0,.22,0,.33.02s.22.02.33.04c.11.02.2.04.28.06.08.03.16.08.22.16s.09.17.09.26c0,.07,0,.15-.02.21-.01.07-.04.13-.07.18-.03.05-.08.09-.13.12s-.12.05-.2.05c-.13-.01-.28-.03-.45-.06s-.34-.03-.51-.03c-.34,0-.69,0-1.03.02-.34.02-.69.07-1.05.15-.02,0-.03.03-.04.06s-.01.07-.01.12c-.01.2-.03.37-.05.52s-.05.3-.09.45c-.04.15-.09.31-.14.49-.05.17-.12.38-.19.63s-.16.54-.26.87c-.1.34-.2.75-.32,1.23l-.26,1.07c-.06.25-.11.47-.15.66-.04.2-.06.39-.09.58-.01.06-.07.12-.17.18-.1.05-.21.08-.34.08-.08,0-.15-.02-.21-.06-.06-.04-.11-.1-.15-.16-.04-.07-.07-.14-.08-.22s-.01-.16.01-.23Z"/>
    <path class="st0" d="M32.81,17.77c.05-.26.1-.54.17-.85s.13-.62.19-.94c.07-.31.13-.62.19-.93.06-.3.12-.58.16-.84,0-.04,0-.07,0-.1v-.09c0-.11,0-.23.02-.34.01-.11.03-.22.06-.31.04-.14.08-.23.13-.28.05-.05.13-.07.24-.07s.19.02.26.06c.06.04.11.1.15.17.04.07.06.15.07.24.01.09.02.18.02.28,0,.05,0,.11,0,.17,0,.06,0,.11,0,.15.1-.11.21-.22.33-.33.12-.11.24-.21.37-.3.13-.09.27-.16.41-.22.14-.06.3-.09.45-.09.06,0,.12,0,.18.02.06.01.12.03.18.04.07.02.15.04.23.07.08.03.16.07.23.13.12.09.22.21.31.34.08.14.12.28.12.42,0,.05-.01.11-.03.18-.02.06-.05.12-.09.18s-.08.1-.13.13c-.05.04-.11.05-.17.05s-.14-.02-.23-.05c-.09-.03-.16-.07-.22-.12-.03-.02-.05-.05-.08-.09-.03-.04-.05-.08-.08-.12-.02-.04-.05-.08-.07-.11-.02-.03-.04-.06-.05-.07-.02,0-.04,0-.06,0-.02,0-.04,0-.06,0-.19,0-.36.05-.53.14-.17.1-.33.21-.47.35-.15.14-.28.28-.4.44-.12.16-.23.3-.32.42-.07.3-.16.61-.25.95s-.18.69-.27,1.05v.14c0,.11,0,.22-.01.34,0,.11-.03.21-.07.3-.04.06-.1.1-.17.14-.08.04-.16.06-.26.06-.15,0-.27-.05-.35-.15-.08-.1-.12-.22-.12-.35,0-.06,0-.13.03-.19Z"/>
    <path class="st0" d="M37.49,17.33c.05-.21.12-.46.2-.74.08-.28.16-.58.24-.9.09-.31.17-.64.26-.97.09-.33.17-.65.25-.96,0-.01.02-.04.04-.07.02-.04.05-.07.09-.1.04-.04.09-.06.15-.09.06-.03.14-.04.22-.04.06,0,.12,0,.18.02.06.01.11.03.16.06.05.03.08.06.11.1.03.04.04.09.04.15v.04s0,.02,0,.04l-.15.58c-.17.65-.35,1.31-.53,1.96-.18.66-.35,1.31-.52,1.97,0,.02-.02.05-.03.08s-.03.07-.06.1c-.03.03-.06.06-.09.08-.04.02-.08.03-.13.03-.1,0-.18-.02-.25-.06-.07-.04-.14-.09-.19-.15s-.09-.12-.12-.19c-.03-.07-.04-.13-.04-.2v-.05s0-.03.01-.05l.16-.64ZM38.92,11.64c.02-.08.05-.17.1-.28.05-.11.13-.21.25-.3.06-.03.13-.06.21-.09.08-.03.14-.04.18-.04s.07.01.11.04c.04.03.07.05.1.08.04.04.07.08.1.12.09,0,.15.04.18.1.03.06.04.13.04.21,0,.06,0,.11-.02.16-.01.05-.02.09-.03.12-.02.08-.06.15-.13.21-.06.06-.13.12-.21.17-.08.05-.17.08-.25.11-.09.03-.17.04-.23.04-.08,0-.15-.01-.2-.04s-.1-.09-.17-.19c-.04-.05-.06-.1-.07-.13,0-.03,0-.06,0-.08,0-.04,0-.08,0-.11,0-.03.01-.06.02-.09Z"/>
    <path class="st0" d="M39.87,20.37c.07-.3.14-.57.2-.82.06-.25.11-.48.16-.7.05-.22.09-.43.13-.63.04-.21.08-.41.13-.62s.09-.42.13-.65c.05-.22.1-.47.15-.73l.26-1.28c.04-.22.07-.4.09-.56.02-.16.02-.3.02-.43,0-.14,0-.26.01-.37,0-.11.03-.2.06-.27.03-.08.08-.13.15-.17.06-.04.15-.06.27-.06.17,0,.29.02.38.07.09.05.16.11.2.18s.07.16.08.25.01.19.01.3c.12-.09.27-.17.44-.24.17-.07.34-.13.52-.17s.36-.08.54-.11c.18-.03.36-.04.52-.04.26,0,.5.05.69.14.2.09.36.22.5.37.13.16.23.34.3.54s.1.41.1.63c0,.25-.04.49-.12.71-.08.22-.19.43-.33.63s-.3.38-.49.54c-.19.17-.38.32-.6.46-.21.14-.44.27-.67.38s-.46.22-.68.31c-.15.06-.29.11-.43.14s-.25.05-.36.05c-.15,0-.3-.02-.44-.05s-.28-.09-.41-.16c-.07.25-.13.49-.18.71-.05.23-.09.43-.12.6-.02.11-.04.23-.07.35-.03.12-.05.24-.08.35-.03.12-.05.22-.07.33-.02.1-.04.19-.06.26-.01.04-.04.08-.08.11-.04.03-.09.05-.15.07-.06.02-.12.04-.18.04s-.11.01-.16.01c-.27,0-.41-.11-.41-.32,0-.06,0-.12.03-.19ZM41.57,17.18c.06,0,.11.02.18.03.06.01.12.02.18.03.06.01.11.02.15.03.04,0,.07.01.09.01.07,0,.15,0,.23-.03.09-.02.17-.04.26-.07.09-.03.17-.06.25-.1.08-.03.15-.07.21-.1.18-.09.37-.2.57-.33.2-.13.39-.28.57-.45.17-.17.32-.36.43-.57.11-.21.17-.44.17-.69,0-.1-.01-.2-.04-.29-.03-.09-.06-.17-.12-.23-.05-.07-.12-.12-.2-.16-.08-.04-.18-.06-.29-.06-.12,0-.24,0-.35.02-.11.02-.22.04-.32.08-.11.04-.21.08-.32.14-.11.06-.22.13-.33.21-.1.08-.22.16-.35.22-.13.06-.27.11-.42.12l-.56,2.17Z"/>
    <path class="st0" d="M52.99,16.63c0-.31.03-.63.1-.96.07-.33.14-.65.22-.95-.1,0-.19-.02-.29-.04-.1-.03-.19-.06-.27-.1s-.15-.1-.2-.16c-.05-.06-.08-.14-.08-.22,0-.03,0-.08.02-.13s.04-.1.06-.15c.03-.05.06-.09.11-.13s.09-.05.15-.05h.74c.07,0,.12-.03.14-.09.03-.06.05-.12.06-.18.05-.21.09-.4.13-.55.04-.16.08-.29.11-.4.03-.11.05-.2.07-.26.02-.07.02-.12.02-.16,0-.05,0-.09,0-.14,0-.04,0-.1,0-.18v-.06s0-.07,0-.12c0-.05.02-.12.05-.2.02-.07.06-.14.12-.2.06-.06.15-.09.26-.09.1,0,.18.02.25.06.07.04.13.09.17.16.04.07.08.14.1.23.02.08.03.17.03.25,0,.09,0,.17-.03.25l-.4,1.54c.2-.03.37-.06.53-.09.15-.03.31-.06.46-.09.17-.03.31-.06.44-.09s.23-.05.32-.07.16-.04.22-.05c.06-.01.11-.02.15-.02.06,0,.12,0,.18.01.06,0,.11.02.16.05.05.02.08.05.11.09.03.04.04.09.04.16,0,.09-.02.17-.05.23s-.08.13-.13.18-.12.09-.19.12-.14.05-.21.07c-.06.01-.13.03-.23.05s-.2.05-.31.07c-.11.03-.23.05-.35.08s-.24.06-.35.09c-.17.04-.31.08-.43.11s-.22.05-.31.07-.15.03-.21.03c-.05,0-.1.01-.13.01-.07.21-.13.41-.18.62-.05.2-.09.39-.13.56-.04.17-.06.33-.08.47-.02.14-.02.24-.02.32,0,.1,0,.19.03.28.02.09.05.17.09.23s.1.12.18.16c.08.04.17.06.28.06.19,0,.38-.05.57-.16.19-.11.37-.24.54-.4.17-.16.33-.34.48-.54s.29-.38.42-.56c.04-.07.1-.1.17-.1.02,0,.05,0,.08.01.03,0,.06.02.09.04.03.02.05.04.07.07s.03.06.03.1c0,.03,0,.05,0,.07-.06.23-.15.46-.27.68-.12.23-.25.46-.38.69-.04.08-.1.16-.17.24-.07.08-.15.15-.23.22-.08.07-.17.14-.26.2s-.18.12-.26.17c-.14.09-.29.15-.46.18s-.32.05-.48.05c-.24,0-.45-.04-.63-.13-.19-.09-.34-.2-.47-.35s-.22-.32-.29-.52c-.07-.2-.1-.41-.1-.64Z"/>
    <path class="st0" d="M58.2,16.23c.05-.22.14-.46.26-.71.12-.25.27-.5.45-.76.19-.26.41-.51.67-.75s.57-.47.91-.69c.05-.03.14-.07.25-.11.11-.04.23-.06.35-.07.14-.15.34-.23.58-.23.29,0,.53.07.72.22.2.15.36.34.49.59.04.08.08.16.11.24.03.08.06.16.09.24.02.09.04.18.06.28.01.1.02.21.02.34,0,.29-.05.58-.14.89-.09.3-.22.59-.39.88-.17.29-.37.56-.61.82s-.51.5-.8.71c-.2.14-.42.25-.66.33-.24.08-.51.12-.81.12s-.53-.04-.73-.11c-.21-.07-.38-.18-.52-.32-.14-.14-.24-.31-.31-.5-.07-.19-.1-.41-.1-.65s.03-.48.1-.74ZM59.11,16.3c-.02.08-.04.16-.05.24,0,.07-.01.15-.01.22,0,.12.02.23.05.34.03.11.08.2.15.27.07.08.16.13.26.18.1.04.23.06.38.06.28,0,.54-.07.78-.21.24-.14.45-.32.64-.53.19-.21.34-.44.47-.68.13-.24.22-.47.27-.67.03-.13.06-.25.09-.36.02-.11.04-.22.04-.31s-.02-.18-.05-.27c-.04-.08-.08-.17-.13-.28-.03-.06-.07-.13-.1-.2-.03-.07-.06-.13-.09-.2-.03.05-.06.1-.09.13-.03.04-.08.07-.15.1-.07.03-.16.06-.27.08-.11.03-.26.05-.45.07-.12.04-.24.1-.37.19-.12.08-.25.18-.37.3-.12.11-.23.24-.34.37-.11.13-.21.27-.29.4-.09.14-.16.27-.22.4-.06.13-.11.25-.13.36Z"/>
    <path class="st0" d="M67.85,20.88c-.15,0-.26-.04-.34-.12-.08-.08-.11-.17-.11-.27,0-.15.04-.29.13-.4s.2-.21.32-.3c.12-.09.25-.16.38-.23.13-.07.23-.13.31-.2.17-.14.31-.3.44-.48.13-.18.23-.35.3-.5.12-.24.23-.51.33-.8.1-.29.2-.6.29-.91.09-.31.17-.63.24-.95.07-.32.13-.63.19-.93.02-.09.03-.17.03-.25,0-.08,0-.16,0-.23,0-.19.03-.34.05-.46.03-.12.07-.2.12-.27.05-.06.12-.1.19-.12.08-.02.16-.03.26-.03.21,0,.35.05.43.15.08.1.12.25.12.44,0,.11-.02.27-.05.48-.03.21-.08.46-.14.74-.06.28-.13.59-.22.92s-.19.67-.3,1.01c-.11.34-.24.68-.38,1.01-.14.33-.29.64-.44.92-.04.06-.08.13-.13.2-.05.07-.1.14-.16.2-.06.07-.11.13-.16.2-.05.06-.1.12-.15.17-.15.17-.28.32-.41.45-.13.13-.26.24-.38.32-.13.09-.25.15-.38.2-.13.04-.27.07-.41.07ZM70.71,11.88c0-.14.04-.25.1-.35.07-.1.16-.18.26-.25.08-.05.15-.09.22-.12.06-.03.13-.05.21-.05.1,0,.18.02.25.05.07.03.12.07.16.13.04.05.07.11.09.18.02.06.02.13.02.19,0,.13-.02.26-.07.37-.05.12-.14.23-.28.34-.05.04-.1.07-.15.1-.05.02-.1.04-.16.04-.19,0-.34-.06-.46-.17s-.18-.26-.18-.46Z"/>
    <path class="st0" d="M75.14,18.1c0-.11.01-.23.04-.38.03-.15.04-.33.04-.55-.12.09-.25.19-.4.31s-.3.24-.46.35c-.16.11-.31.2-.47.28-.16.07-.3.11-.44.11-.11,0-.21-.02-.31-.05-.1-.03-.18-.08-.25-.13-.19-.15-.33-.31-.42-.46-.09-.15-.13-.33-.13-.54,0-.09,0-.19.03-.29s.04-.21.07-.34c.14-.58.38-1.12.72-1.61.34-.49.76-.91,1.26-1.26.19-.14.39-.22.58-.26s.39-.06.58-.06c.08,0,.18,0,.28.02.1.01.2.02.28.03.08-.02.15-.03.21-.04.05,0,.11-.01.17-.01.11,0,.2.01.27.04s.13.07.18.12.08.11.1.17c.02.06.03.13.03.2,0,.1-.01.19-.04.27-.03.09-.06.17-.09.26l-.73,2.9c-.02.16-.03.3-.04.43-.01.13-.03.25-.07.37-.01.03-.03.07-.04.12-.02.05-.04.1-.08.14-.04.04-.08.08-.14.12s-.13.05-.21.05c-.11,0-.2,0-.27-.02-.07-.01-.12-.04-.16-.06-.04-.03-.06-.06-.07-.1s-.02-.08-.02-.13ZM73.31,16.44c-.01.05-.03.12-.05.22-.02.1-.02.19-.02.29s.01.19.04.27c.03.08.09.12.19.12.15,0,.3-.03.43-.1.13-.07.26-.15.38-.25.16-.13.32-.27.48-.43.16-.16.32-.33.46-.5.14-.18.27-.36.38-.54.11-.19.19-.37.25-.55.03-.11.05-.23.07-.37.02-.14.03-.26.03-.37,0-.05-.01-.09-.03-.14-.02-.05-.06-.07-.13-.07-.18,0-.36.04-.54.1-.18.07-.36.16-.53.28-.17.12-.33.26-.48.42-.15.16-.29.33-.42.51-.12.18-.23.37-.32.56-.09.19-.16.38-.21.56Z"/>
    <path class="st0" d="M77.45,20.37c.07-.3.14-.57.2-.82.06-.25.11-.48.16-.7.05-.22.09-.43.13-.63.04-.21.08-.41.13-.62.04-.21.09-.42.13-.65.05-.22.1-.47.15-.73l.26-1.28c.04-.22.07-.4.09-.56.02-.16.02-.3.02-.43,0-.14,0-.26.01-.37,0-.11.03-.2.06-.27s.08-.13.15-.17c.06-.04.15-.06.27-.06.16,0,.29.02.38.07.09.05.16.11.2.18s.07.16.08.25c0,.1.01.19.01.3.12-.09.27-.17.44-.24.17-.07.34-.13.52-.17s.36-.08.54-.11c.18-.03.36-.04.52-.04.26,0,.5.05.69.14.2.09.36.22.49.37s.23.34.3.54c.07.2.1.41.1.63,0,.25-.04.49-.12.71-.08.22-.19.43-.33.63s-.3.38-.49.54c-.19.17-.38.32-.6.46-.21.14-.44.27-.67.38-.23.12-.46.22-.68.31-.15.06-.29.11-.43.14s-.25.05-.36.05c-.15,0-.3-.02-.44-.05-.14-.03-.28-.09-.41-.16-.07.25-.13.49-.18.71-.05.23-.09.43-.12.6-.02.11-.04.23-.07.35-.03.12-.05.24-.08.35-.03.12-.05.22-.07.33-.02.1-.04.19-.06.26-.01.04-.04.08-.08.11s-.09.05-.15.07c-.06.02-.12.04-.18.04s-.11.01-.16.01c-.27,0-.41-.11-.41-.32,0-.06,0-.12.03-.19ZM79.15,17.18c.06,0,.11.02.18.03.06.01.12.02.18.03.06.01.11.02.15.03.04,0,.07.01.08.01.07,0,.15,0,.23-.03.09-.02.17-.04.26-.07.09-.03.17-.06.25-.1.08-.03.15-.07.21-.1.18-.09.37-.2.57-.33.2-.13.39-.28.57-.45.17-.17.32-.36.43-.57.11-.21.17-.44.17-.69,0-.1-.01-.2-.04-.29-.03-.09-.06-.17-.12-.23-.05-.07-.12-.12-.2-.16-.08-.04-.18-.06-.29-.06-.12,0-.24,0-.35.02-.11.02-.22.04-.32.08-.11.04-.21.08-.32.14-.11.06-.22.13-.33.21-.1.08-.22.16-.35.22-.13.06-.27.11-.42.12l-.56,2.17Z"/>
    <path class="st0" d="M86.96,18.1c0-.11.01-.23.04-.38.03-.15.04-.33.04-.55-.12.09-.25.19-.4.31s-.3.24-.46.35c-.16.11-.31.2-.47.28-.16.07-.3.11-.44.11-.11,0-.21-.02-.31-.05-.1-.03-.18-.08-.25-.13-.19-.15-.33-.31-.42-.46-.09-.15-.13-.33-.13-.54,0-.09,0-.19.03-.29s.04-.21.07-.34c.14-.58.38-1.12.72-1.61.34-.49.76-.91,1.26-1.26.19-.14.39-.22.58-.26s.39-.06.58-.06c.08,0,.18,0,.28.02.1.01.2.02.28.03.08-.02.15-.03.21-.04.05,0,.11-.01.17-.01.11,0,.2.01.27.04s.13.07.18.12.08.11.1.17c.02.06.03.13.03.2,0,.1-.01.19-.04.27-.03.09-.06.17-.09.26l-.73,2.9c-.02.16-.03.3-.04.43-.01.13-.03.25-.07.37-.01.03-.03.07-.04.12-.02.05-.04.1-.08.14-.04.04-.08.08-.14.12s-.13.05-.21.05c-.11,0-.2,0-.27-.02-.07-.01-.12-.04-.16-.06-.04-.03-.06-.06-.07-.1s-.02-.08-.02-.13ZM85.13,16.44c-.01.05-.03.12-.05.22-.02.1-.02.19-.02.29s.01.19.04.27c.03.08.09.12.19.12.15,0,.3-.03.43-.1.13-.07.26-.15.38-.25.16-.13.32-.27.48-.43.16-.16.32-.33.46-.5.14-.18.27-.36.38-.54.11-.19.19-.37.25-.55.03-.11.05-.23.07-.37.02-.14.03-.26.03-.37,0-.05-.01-.09-.03-.14-.02-.05-.06-.07-.13-.07-.18,0-.36.04-.54.1-.18.07-.36.16-.53.28-.17.12-.33.26-.48.42-.15.16-.29.33-.42.51-.12.18-.23.37-.32.56-.09.19-.16.38-.21.56Z"/>
    <path class="st0" d="M93.65,13.82c-.13,0-.27.03-.41.09-.15.06-.3.14-.46.25-.16.1-.32.22-.48.35-.16.13-.32.26-.48.4-.08.07-.16.13-.23.19s-.15.1-.22.13c-.05.08-.11.2-.16.33-.06.14-.11.29-.17.45-.06.16-.11.33-.16.5-.05.17-.09.33-.12.47-.02.08-.03.15-.04.23-.01.07-.02.15-.04.23-.01.08-.03.17-.05.27-.02.09-.04.2-.07.32-.02.07-.05.13-.09.17-.04.04-.08.07-.13.1-.04.02-.09.04-.13.04-.04,0-.07,0-.09,0-.14,0-.25-.03-.34-.1s-.13-.19-.13-.38c0-.05,0-.11,0-.16s.01-.12.03-.19c.08-.35.16-.66.23-.94.08-.28.15-.54.23-.77s.16-.46.23-.67c.08-.21.16-.42.24-.64.08-.21.17-.44.26-.67s.19-.48.29-.76c.02-.06.08-.11.17-.16.09-.04.19-.06.3-.06.14,0,.25.03.34.09.09.06.13.15.13.27,0,.01,0,.03-.01.06,0,.03-.02.06-.03.09l-.24.57c.15-.12.31-.24.48-.36.17-.12.34-.23.51-.33s.35-.18.53-.24.35-.09.53-.09c.35,0,.63.09.82.28.2.19.3.48.3.88,0,.23-.04.49-.12.78-.08.29-.18.6-.3.93s-.25.68-.38,1.04c-.14.36-.26.74-.38,1.11-.03.1-.07.19-.1.26-.04.07-.08.12-.12.17-.05.04-.1.07-.17.09-.06.02-.14.03-.23.03-.14,0-.24-.03-.3-.08-.05-.05-.08-.14-.08-.26,0-.1.02-.23.05-.38s.08-.31.13-.49c.06-.18.12-.37.2-.57.08-.2.16-.41.25-.62.07-.17.14-.34.21-.51.07-.17.13-.33.18-.49.05-.16.1-.31.13-.45s.05-.27.05-.4c0-.11-.03-.21-.07-.3-.05-.09-.14-.13-.28-.13Z"/>
  </g>
</svg>