<?xml version="1.0" encoding="UTF-8"?>
<svg id="Layer_1" xmlns="http://www.w3.org/2000/svg" version="1.1" viewBox="0 0 117 34">
  <!-- Generator: Adobe Illustrator 29.6.1, SVG Export Plug-In . SVG Version: 2.1.1 Build 9)  -->
  <defs>
    <style>
      .st0, .st1 {
        fill: #fff;
      }

      .st1 {
        fill-rule: evenodd;
      }

      .st2 {
        fill: #ffb128;
      }
    </style>
  </defs>
  <path class="st2" d="M6,19.79c0-7.67,6.22-13.89,13.89-13.89h83c7.67,0,13.9,6.22,13.9,13.89s-6.22,13.89-13.9,13.89H19.89c-7.67,0-13.89-6.22-13.89-13.89Z"/>
  <path class="st2" d="M2.77,8.74L1.01,2.13c-.27-.76.45-1.5,1.22-1.23l6.72,1.68c1.21.42,1.31,2.1.16,2.66l-.71.35c-1.19.57-2.14,1.54-2.7,2.73l-.26.54c-.55,1.16-2.22,1.08-2.66-.12Z"/>
  <path class="st1" d="M16.44,24.77h0s0,0,0,0c0,0,.01-.02.02-.03.02-.03.05-.06.09-.11.08-.1.18-.25.29-.42.2-.32.4-.71.5-1.12-.63-.89-1-1.98-1-3.16,0-3.04,2.46-5.5,5.5-5.5s5.5,2.46,5.5,5.5-2.46,5.5-5.5,5.5c-.69,0-1.35-.13-1.95-.36-.62.23-1.38.32-1.98.35-.33.02-.63.02-.84.02-.11,0-.19,0-.25,0-.03,0-.05,0-.07,0h-.02s0,0,0,0h0s.02-.39.02-.39q-.02.39-.02.39c-.15,0-.28-.1-.34-.24-.06-.14-.03-.3.06-.41ZM19.29,19.27c-.36,0-.66.29-.66.66s.29.66.66.66h0c.36,0,.66-.29.66-.66s-.29-.66-.66-.66h0ZM21.85,19.27c-.36,0-.66.29-.66.66s.29.66.66.66h0c.36,0,.66-.29.66-.66s-.29-.66-.66-.66h0ZM24.4,19.27c-.36,0-.66.29-.66.66s.29.66.66.66h0c.36,0,.66-.29.66-.66s-.29-.66-.66-.66h0Z"/>
  <g>
    <path class="st0" d="M31.07,21.91c.1.04.2.08.3.12.1.05.21.09.32.13.11.04.23.08.35.11.12.03.25.04.39.04.16,0,.32-.02.49-.06s.32-.09.48-.17c.16-.07.31-.17.45-.27s.27-.23.39-.37c.13-.15.24-.28.33-.4.09-.12.16-.23.21-.32.05-.09.09-.18.12-.25s.04-.13.04-.18c0-.07-.02-.14-.07-.19-.05-.05-.12-.1-.2-.13-.08-.04-.18-.06-.28-.08-.1-.02-.21-.02-.33-.02-.07,0-.15,0-.24,0-.09,0-.18,0-.28.01-.09,0-.18,0-.27.01-.09,0-.16,0-.23,0-.1,0-.2-.01-.3-.03-.1-.02-.21-.06-.31-.11-.1-.05-.19-.12-.28-.2-.08-.08-.15-.19-.21-.31-.02-.04-.03-.09-.05-.14-.01-.06-.02-.12-.02-.18,0-.07,0-.14.02-.2.01-.06.02-.12.04-.18.04-.15.11-.29.2-.44.09-.15.21-.3.34-.44.13-.14.28-.28.43-.42.16-.13.32-.26.48-.38s.33-.22.49-.32c.16-.1.31-.18.44-.24.19-.09.39-.16.59-.2.2-.04.4-.06.59-.06.12,0,.23.02.33.05.11.03.2.08.28.13.08.06.14.13.19.22.05.09.07.18.07.3,0,.06,0,.12-.02.16-.01.04-.03.08-.06.11-.02.03-.05.05-.08.06s-.06.02-.09.02c-.08,0-.15,0-.22-.03-.07-.02-.13-.04-.19-.06-.06-.02-.12-.04-.18-.06-.06-.02-.13-.03-.2-.03-.22,0-.44.04-.66.13-.22.09-.44.2-.65.33-.21.13-.41.28-.6.44-.19.16-.36.32-.51.48-.08.08-.14.16-.17.25-.04.08-.06.16-.06.23,0,.11.05.19.14.25.09.06.21.09.34.09.08,0,.17,0,.27,0s.2,0,.3-.01c.1,0,.2,0,.3-.01.1,0,.18,0,.26,0,.18,0,.35.03.52.08.17.05.31.13.44.23.13.1.23.22.31.37.08.15.12.32.12.51,0,.12-.02.24-.05.36-.04.12-.08.24-.14.36-.06.12-.13.24-.21.36-.08.12-.16.23-.25.35-.16.2-.33.4-.53.58-.19.18-.4.34-.62.47-.22.13-.45.24-.69.32s-.49.12-.75.12c-.11,0-.22,0-.34-.03s-.23-.05-.35-.09c-.11-.04-.22-.09-.32-.15-.1-.06-.19-.13-.26-.2-.08-.08-.14-.16-.18-.25-.04-.09-.07-.19-.07-.3,0-.05,0-.1.02-.15.02-.05.06-.07.12-.07Z"/>
    <path class="st0" d="M37.28,19.03s.03-.09.05-.12.05-.06.07-.08c.02-.02.05-.04.07-.04.02,0,.04-.01.05-.01.03,0,.07,0,.11.01.04,0,.09.01.13.02.05,0,.09.02.14.03.08,0,.13.03.16.09s.05.13.05.21c0,.06,0,.12-.03.18-.1.37-.19.68-.27.95-.08.27-.15.5-.21.69-.06.19-.1.34-.13.46-.03.12-.05.21-.05.27s0,.13.02.21.04.15.07.21c.03.07.07.12.12.16.05.04.11.07.18.07.12,0,.25-.04.37-.11s.25-.17.36-.28.22-.23.31-.35.17-.23.23-.33l.11-.2c.07-.12.13-.26.19-.42.06-.16.11-.32.16-.48.04-.16.08-.31.12-.45.03-.14.06-.25.07-.34l.11-.58c.02-.11.06-.19.11-.23.05-.04.13-.06.24-.06.07,0,.14,0,.2.02s.11.04.15.08c.04.04.07.1.09.17.02.07.03.16.03.26,0,.12-.02.28-.06.46s-.08.37-.13.55c-.03.11-.05.22-.08.34-.03.12-.05.24-.07.36s-.04.24-.05.35c-.01.11-.02.21-.02.3,0,.15,0,.3.02.45,0,.15.02.31.02.47,0,.08,0,.14,0,.2,0,.06-.01.1-.02.13-.03.11-.07.2-.12.25-.05.06-.14.08-.26.08-.08,0-.15,0-.2-.03-.05-.02-.09-.04-.12-.08s-.05-.07-.05-.11c0-.04-.01-.08-.02-.12l-.05-.83h-.04c-.1.14-.2.27-.31.42s-.24.29-.38.42c-.14.13-.29.24-.45.33-.16.09-.34.13-.53.13-.04,0-.09,0-.15-.03-.06-.02-.12-.04-.19-.07-.06-.03-.13-.06-.18-.1-.06-.04-.11-.07-.14-.1-.16-.15-.27-.32-.34-.5-.07-.19-.1-.38-.1-.57,0-.11,0-.22.03-.32.02-.11.04-.21.06-.31s.05-.2.08-.29c.03-.09.05-.17.07-.24.06-.22.1-.41.15-.58.04-.17.08-.31.12-.44.03-.13.06-.23.09-.32.02-.09.04-.17.06-.23Z"/>
    <path class="st0" d="M41.49,22.63c.09-.34.17-.66.25-.95.08-.29.16-.58.24-.85.08-.27.15-.53.23-.79s.14-.51.21-.78c.03-.1.04-.2.05-.29s.02-.19.04-.3c.01-.04.03-.07.06-.09.03-.03.06-.05.1-.07s.08-.04.12-.05c.04-.01.08-.02.12-.02.08,0,.15,0,.2.03.05.02.1.04.13.08s.06.07.07.12.02.1.02.15c0,.1-.02.2-.05.3-.03.1-.07.21-.12.33.14-.11.28-.21.42-.31.14-.1.29-.18.45-.25.15-.07.31-.13.47-.18.16-.04.33-.07.5-.07.08,0,.16.01.24.04.08.02.15.06.21.12.06.05.12.12.16.21.04.08.07.19.07.31.13-.08.26-.17.39-.26.13-.09.27-.16.41-.23s.28-.12.42-.17c.14-.04.27-.06.41-.06.2,0,.36.03.48.08s.23.12.3.21c.07.09.13.19.16.3.03.11.05.23.05.36,0,.14-.01.28-.04.43-.03.15-.06.29-.09.42-.08.34-.18.66-.28.96-.11.3-.22.61-.34.92-.03.07-.06.15-.09.23-.03.08-.07.16-.11.23s-.09.12-.15.17c-.06.04-.12.07-.2.07-.17,0-.29-.03-.35-.09-.06-.06-.1-.14-.1-.25,0-.03,0-.06,0-.1s.01-.07.02-.11c.01-.04.04-.11.08-.19.04-.08.09-.17.13-.27.05-.1.1-.19.14-.29.05-.1.08-.18.1-.26.04-.13.08-.27.13-.44.05-.16.1-.33.15-.5.05-.17.09-.33.12-.48.03-.15.05-.27.05-.37,0-.04,0-.09-.01-.13,0-.04-.02-.08-.05-.11-.02-.03-.05-.06-.09-.08-.04-.02-.09-.03-.15-.03-.09,0-.19.02-.31.07-.12.05-.25.11-.38.2-.13.08-.26.17-.38.27-.12.1-.23.2-.31.3-.06.07-.12.13-.18.17-.06.04-.11.08-.17.1,0,.01-.02.05-.04.12-.02.07-.05.14-.08.24-.03.09-.07.19-.1.3s-.07.21-.1.3c-.03.09-.06.17-.08.23-.02.06-.03.1-.03.1-.02.08-.04.17-.05.25-.01.09-.03.17-.04.25-.01.08-.02.16-.03.25-.01.09-.03.17-.06.25-.03.08-.08.14-.14.19-.06.05-.15.07-.27.07-.06,0-.11-.01-.16-.04-.05-.03-.09-.07-.12-.11-.04-.04-.06-.1-.08-.15-.02-.06-.03-.11-.04-.17.07-.26.13-.5.2-.71.06-.21.13-.41.19-.61.06-.19.13-.39.19-.58.06-.19.12-.41.18-.64.01-.06.03-.11.03-.16s.01-.1.01-.14c0-.07-.01-.13-.04-.17-.03-.04-.08-.07-.15-.07-.12,0-.24.02-.36.07-.12.05-.25.12-.38.23-.14.1-.29.23-.46.39-.17.16-.36.35-.58.57-.02.04-.05.12-.09.25-.04.12-.08.25-.12.38-.04.13-.08.26-.11.37-.03.12-.05.19-.06.23-.03.12-.05.23-.07.31s-.02.16-.03.23c0,.04-.01.09-.03.17s-.03.16-.06.24c-.03.08-.07.15-.13.22-.06.06-.13.09-.22.09-.13,0-.24-.04-.33-.11-.09-.07-.13-.17-.13-.28,0-.02,0-.04,0-.06s0-.04.01-.06Z"/>
    <path class="st0" d="M49.19,22.63c.09-.34.17-.66.25-.95.08-.29.16-.58.24-.85.08-.27.15-.53.23-.79s.14-.51.21-.78c.03-.1.04-.2.05-.29s.02-.19.04-.3c.01-.04.03-.07.06-.09.03-.03.06-.05.1-.07s.08-.04.12-.05c.04-.01.08-.02.12-.02.08,0,.15,0,.2.03.05.02.1.04.13.08s.06.07.07.12.02.1.02.15c0,.1-.02.2-.05.3-.03.1-.07.21-.12.33.14-.11.28-.21.42-.31s.29-.18.45-.25c.15-.07.31-.13.47-.17.16-.04.33-.07.5-.07.08,0,.16.01.24.04.08.02.15.06.21.12.06.05.12.12.16.21.04.08.07.19.07.31.13-.08.26-.17.39-.26.13-.09.27-.16.41-.23s.28-.12.42-.17c.14-.04.27-.06.41-.06.2,0,.36.03.48.08s.23.12.3.21c.07.09.13.19.16.3.03.11.05.23.05.36,0,.14-.01.28-.04.43-.03.15-.06.29-.09.42-.08.34-.18.66-.28.96-.11.3-.22.61-.34.92-.03.07-.06.15-.09.23-.03.08-.07.16-.11.23s-.09.12-.15.17c-.06.04-.12.07-.2.07-.17,0-.29-.03-.35-.09-.06-.06-.1-.14-.1-.25,0-.03,0-.06,0-.1s.01-.07.02-.11c.01-.04.04-.11.08-.19.04-.08.09-.17.13-.27.05-.1.1-.19.14-.29.05-.1.08-.18.1-.26.04-.13.08-.27.13-.44.05-.16.1-.33.15-.5.05-.17.09-.33.12-.48.03-.15.05-.27.05-.37,0-.04,0-.09-.01-.13,0-.04-.02-.08-.05-.11-.02-.03-.05-.06-.09-.08-.04-.02-.09-.03-.15-.03-.09,0-.19.02-.31.07-.12.05-.25.11-.38.2-.13.08-.26.17-.38.27-.12.1-.23.2-.31.3-.06.07-.12.13-.18.17-.06.04-.11.08-.17.1,0,.01-.02.05-.04.12-.02.07-.05.14-.08.24-.03.09-.07.19-.1.3s-.07.21-.1.3c-.03.09-.06.17-.08.23-.02.06-.03.1-.03.1-.02.08-.04.17-.05.25-.01.09-.03.17-.04.25-.01.08-.02.16-.03.25-.01.09-.03.17-.06.25-.03.08-.08.14-.14.19-.06.05-.15.07-.27.07-.06,0-.11-.01-.16-.04-.05-.03-.09-.07-.12-.11-.04-.04-.06-.1-.08-.15-.02-.06-.03-.11-.04-.17.07-.26.13-.5.2-.71.06-.21.13-.41.19-.6.06-.19.13-.39.19-.58.06-.19.12-.41.18-.64.01-.06.03-.11.03-.16s.01-.1.01-.14c0-.07-.01-.13-.04-.17-.03-.04-.08-.07-.15-.07-.12,0-.24.02-.36.07-.12.05-.25.12-.38.23-.14.1-.29.23-.46.39-.17.16-.36.35-.58.57-.02.04-.05.12-.09.25-.04.12-.08.25-.12.38-.04.13-.08.26-.11.37-.03.12-.05.19-.06.23-.03.12-.05.23-.07.31s-.02.16-.03.23c0,.04-.01.09-.03.17s-.03.16-.06.24c-.03.08-.07.15-.13.22-.06.06-.13.09-.22.09-.13,0-.24-.04-.33-.11-.09-.07-.13-.17-.13-.28,0-.02,0-.04,0-.06s0-.04.01-.06Z"/>
    <path class="st0" d="M56.83,21.23c0-.12.03-.23.1-.32.07-.09.16-.15.27-.17.03-.06.08-.15.15-.26.07-.11.15-.23.25-.36.1-.13.21-.26.34-.39.13-.13.27-.25.42-.35.15-.11.32-.19.5-.26.18-.07.36-.1.56-.1.17,0,.32.02.44.06.12.04.23.1.31.17s.14.16.18.26.06.21.06.33c0,.1-.01.19-.04.28-.04.16-.12.31-.23.43-.11.12-.24.23-.39.32s-.31.17-.49.23c-.18.06-.35.11-.53.15-.18.04-.35.07-.51.09s-.31.04-.42.05c-.03.05-.05.12-.07.2-.02.08-.03.16-.03.23,0,.17.07.3.2.39s.32.14.56.14c.14,0,.27-.02.39-.05.13-.03.25-.07.36-.12.11-.05.22-.1.32-.16.1-.06.19-.11.27-.17.11-.07.21-.13.3-.18.09-.05.18-.07.25-.07s.12.02.14.05c.02.04.03.08.03.12,0,.02,0,.05,0,.07,0,.02,0,.04,0,.05-.01.08-.04.15-.09.23-.04.08-.1.14-.17.2-.3.24-.62.41-.94.51-.32.1-.66.15-1.02.15-.07,0-.15,0-.25-.01-.1,0-.19-.03-.3-.05-.1-.03-.2-.06-.3-.11-.1-.05-.19-.12-.27-.2-.08-.08-.14-.18-.19-.3-.05-.12-.07-.26-.07-.43,0-.14.02-.29.06-.46-.04,0-.07-.03-.11-.06-.03-.03-.05-.08-.05-.15ZM59.57,20.02s0-.03,0-.04v-.04c0-.08-.03-.14-.09-.18-.06-.04-.13-.06-.21-.06-.13,0-.25.03-.38.1-.12.07-.24.15-.35.25-.11.1-.21.21-.29.32-.08.12-.15.22-.2.31.21-.02.4-.05.58-.09.17-.04.33-.09.46-.15.13-.06.23-.13.32-.2.08-.08.13-.15.15-.24Z"/>
    <path class="st0" d="M61.41,22.47c.04-.2.08-.43.13-.67.05-.25.1-.49.15-.75.05-.25.1-.5.15-.74.05-.24.09-.46.13-.67,0-.03,0-.05,0-.08v-.07c0-.09,0-.18.02-.27.01-.09.03-.17.05-.25.03-.11.07-.19.11-.23.04-.04.1-.06.19-.06s.15.02.2.05c.05.03.09.08.12.13s.05.12.06.19c0,.07.01.15.01.22,0,.04,0,.09,0,.14,0,.05,0,.09,0,.12.08-.08.17-.17.26-.26s.19-.17.29-.24.21-.13.33-.18c.12-.05.24-.07.36-.07.05,0,.1,0,.15.01.05,0,.1.02.15.04.06.01.12.03.18.06.06.02.12.06.18.1.1.07.18.16.24.27.06.11.1.22.1.33,0,.04,0,.09-.03.14s-.04.1-.07.14c-.03.04-.07.08-.11.11s-.09.04-.14.04-.11-.01-.18-.04c-.07-.02-.13-.06-.18-.1-.02-.02-.04-.04-.06-.08-.02-.03-.04-.06-.06-.1-.02-.03-.04-.06-.05-.09-.02-.03-.03-.05-.04-.05-.02,0-.03,0-.05,0-.02,0-.03,0-.05,0-.15,0-.29.04-.42.11-.13.08-.26.17-.38.28s-.22.23-.32.35-.18.24-.26.33c-.06.24-.12.49-.2.75-.07.27-.14.55-.21.84v.11c0,.09,0,.18,0,.27,0,.09-.02.17-.05.24-.03.04-.08.08-.14.11-.06.03-.13.05-.21.05-.12,0-.21-.04-.28-.12-.06-.08-.09-.17-.09-.28,0-.05,0-.1.02-.15Z"/>
    <path class="st0" d="M70.4,17.96c0-.07,0-.13-.01-.19,0-.05-.02-.11-.02-.15,0-.05-.02-.1-.02-.14,0-.05-.01-.1-.01-.15,0-.07,0-.14.02-.21.01-.07.03-.13.07-.18.03-.05.07-.1.12-.13.05-.03.12-.05.2-.05.12,0,.21.03.28.07.07.05.12.11.16.19.04.08.06.17.08.26.01.1.02.19.02.29,0,.08,0,.22-.02.39-.02.18-.03.4-.05.67s-.03.57-.05.92c-.02.35-.02.74-.02,1.16,0,.13,0,.28.02.45s.04.32.07.47c.04.15.08.28.15.39s.15.18.26.22c.27-.25.51-.52.74-.81.22-.29.43-.59.61-.89.18-.3.34-.59.49-.88.15-.29.28-.55.39-.78.11-.23.21-.44.3-.63.09-.19.17-.36.24-.52.07-.16.13-.31.19-.45.05-.14.1-.27.15-.4.01-.03.03-.07.06-.13.03-.05.07-.1.13-.14.08-.05.2-.08.36-.08.1,0,.18.02.22.07s.07.11.07.19c0,.03,0,.06,0,.1,0,.04,0,.07-.02.11-.07.18-.16.38-.27.61-.11.23-.23.47-.35.73-.11.24-.23.49-.35.74-.12.25-.25.5-.38.75-.13.24-.26.48-.39.7s-.26.43-.38.62c-.11.17-.26.38-.45.64-.19.26-.45.58-.77.94-.05.06-.1.11-.15.16-.05.05-.1.1-.16.14-.06.04-.12.07-.18.1-.06.02-.13.04-.21.04-.12,0-.22-.03-.31-.08-.09-.05-.17-.11-.23-.19s-.13-.16-.18-.25c-.05-.09-.1-.18-.14-.26-.05-.1-.1-.22-.13-.35-.04-.12-.07-.26-.09-.39-.02-.14-.04-.27-.05-.42s-.02-.28-.02-.42c0-.02,0-.07,0-.16,0-.09,0-.2,0-.33s0-.29,0-.46c0-.17,0-.35,0-.54s0-.38,0-.58c0-.2,0-.39,0-.57v-.21Z"/>
    <path class="st0" d="M77.49,22.73c0-.08,0-.19.03-.3.02-.12.03-.27.03-.44-.1.07-.2.15-.32.25-.12.1-.24.19-.36.28-.12.09-.25.16-.37.22-.12.06-.24.09-.35.09-.09,0-.17-.01-.25-.04s-.15-.06-.2-.11c-.16-.12-.27-.25-.33-.37-.07-.12-.1-.27-.1-.43,0-.07,0-.15.02-.23s.03-.17.06-.27c.11-.46.3-.89.57-1.28.27-.39.61-.73,1-1,.16-.11.31-.18.46-.21.16-.03.31-.05.46-.05.07,0,.14,0,.23.01s.16.02.23.03c.07-.01.12-.02.16-.03.04,0,.09,0,.13,0,.09,0,.16.01.22.03s.11.05.14.09c.04.04.06.08.08.14.02.05.02.1.02.16,0,.08-.01.15-.04.22l-.07.21-.58,2.31c-.01.13-.02.24-.03.35,0,.1-.03.2-.05.29,0,.03-.02.06-.03.1-.01.04-.03.08-.06.11-.03.04-.07.07-.11.09-.04.03-.1.04-.17.04-.09,0-.16,0-.22-.02-.05-.01-.1-.03-.12-.05-.03-.02-.05-.05-.06-.08s-.01-.07-.01-.11ZM76.03,21.41s-.02.1-.04.17c-.01.08-.02.15-.02.23s.01.15.04.21.07.09.15.09c.12,0,.24-.03.34-.08.11-.05.21-.12.3-.19.12-.1.25-.22.38-.34s.25-.26.37-.4c.12-.14.22-.28.31-.43s.15-.29.19-.44c.02-.08.04-.18.06-.29.02-.11.02-.21.02-.3,0-.04,0-.08-.03-.11-.02-.04-.05-.05-.1-.05-.14,0-.29.03-.43.08s-.28.13-.42.22c-.13.09-.26.2-.38.33s-.23.26-.33.41c-.1.14-.18.29-.26.45-.07.15-.13.3-.17.45Z"/>
    <path class="st0" d="M79.72,21.21c.06-.22.14-.46.25-.71s.24-.48.4-.71c.16-.23.33-.44.53-.63s.41-.35.65-.47c.08-.04.16-.07.25-.09.09-.02.18-.03.28-.03s.19,0,.27.03.15.05.21.09c.06.04.11.09.14.16s.05.14.05.24c0,.07,0,.14-.03.21-.02.07-.05.14-.09.19-.04.06-.09.1-.15.14-.06.04-.13.05-.21.05-.06,0-.12-.01-.18-.04-.05-.02-.11-.05-.16-.08-.03-.02-.05-.03-.07-.05-.02-.01-.05-.03-.08-.04-.12.05-.23.12-.33.21s-.2.18-.29.29-.17.22-.25.34c-.07.12-.14.24-.2.36-.06.12-.11.24-.15.35s-.08.22-.1.32c-.02.07-.04.15-.05.24s-.02.18-.02.26c0,.06,0,.11.02.17,0,.05.03.1.05.14s.06.07.1.1.1.03.16.03c.1,0,.2-.01.3-.04s.2-.06.29-.1c.1-.04.19-.09.28-.14.09-.05.18-.11.27-.16.06-.04.11-.07.17-.11s.11-.07.16-.1.1-.05.14-.07c.04-.02.08-.03.11-.03.04,0,.08.01.12.03.04.02.06.06.06.11,0,.04,0,.08-.03.13-.04.11-.1.22-.17.31-.07.09-.15.17-.23.24-.09.07-.18.14-.28.19-.1.06-.2.11-.29.15-.18.1-.36.17-.55.22-.19.05-.34.07-.47.07-.04,0-.09,0-.14-.01-.06,0-.1-.02-.14-.04-.24-.1-.41-.24-.52-.41-.11-.17-.16-.38-.16-.61,0-.1,0-.21.02-.32.02-.11.04-.23.07-.35Z"/>
    <path class="st0" d="M83.53,21.21c.06-.22.14-.46.25-.71s.24-.48.4-.71c.16-.23.33-.44.53-.63s.41-.35.65-.47c.08-.04.16-.07.25-.09.09-.02.18-.03.28-.03s.19,0,.27.03.15.05.21.09c.06.04.11.09.14.16s.05.14.05.24c0,.07,0,.14-.03.21-.02.07-.05.14-.09.19-.04.06-.09.1-.15.14-.06.04-.13.05-.21.05-.06,0-.12-.01-.18-.04-.05-.02-.11-.05-.16-.08-.03-.02-.05-.03-.07-.05-.02-.01-.05-.03-.08-.04-.12.05-.23.12-.33.21s-.2.18-.29.29-.17.22-.25.34c-.07.12-.14.24-.2.36-.06.12-.11.24-.15.35s-.08.22-.1.32c-.02.07-.04.15-.05.24s-.02.18-.02.26c0,.06,0,.11.02.17,0,.05.03.1.05.14s.06.07.1.1.1.03.16.03c.1,0,.2-.01.3-.04s.2-.06.29-.1c.1-.04.19-.09.28-.14.09-.05.18-.11.27-.16.06-.04.11-.07.17-.11s.11-.07.16-.1.1-.05.14-.07c.04-.02.08-.03.11-.03.04,0,.08.01.12.03.04.02.06.06.06.11,0,.04,0,.08-.03.13-.04.11-.1.22-.17.31-.07.09-.15.17-.23.24-.09.07-.18.14-.28.19-.1.06-.2.11-.29.15-.18.1-.36.17-.55.22-.19.05-.34.07-.47.07-.04,0-.09,0-.14-.01-.06,0-.1-.02-.14-.04-.24-.1-.41-.24-.52-.41-.11-.17-.16-.38-.16-.61,0-.1,0-.21.02-.32.02-.11.04-.23.07-.35Z"/>
    <path class="st0" d="M89.45,22.73c0-.08,0-.19.03-.3.02-.12.03-.27.03-.44-.1.07-.2.15-.32.25-.12.1-.24.19-.36.28-.12.09-.25.16-.37.22-.12.06-.24.09-.35.09-.09,0-.17-.01-.25-.04s-.15-.06-.2-.11c-.16-.12-.27-.25-.33-.37-.07-.12-.1-.26-.1-.43,0-.07,0-.15.02-.23s.03-.17.06-.27c.11-.46.3-.89.57-1.28.27-.39.61-.73,1-1,.16-.11.31-.18.46-.21.16-.03.31-.05.46-.05.07,0,.14,0,.23.01s.16.02.23.03c.07-.01.12-.02.16-.03.04,0,.09,0,.13,0,.09,0,.16.01.22.03s.11.05.14.09c.04.04.06.08.08.14.02.05.02.1.02.16,0,.08-.01.15-.04.22l-.07.21-.58,2.31c-.01.13-.02.24-.03.35,0,.1-.03.2-.05.29,0,.03-.02.06-.03.1-.01.04-.03.08-.06.11-.03.04-.07.07-.11.09-.04.03-.1.04-.17.04-.09,0-.16,0-.22-.02-.05-.01-.1-.03-.12-.05-.03-.02-.05-.05-.06-.08s-.01-.07-.01-.11ZM88,21.41s-.02.1-.04.17c-.01.08-.02.15-.02.23s.01.15.04.21.07.09.15.09c.12,0,.24-.03.34-.08.11-.05.21-.12.3-.19.12-.1.25-.22.38-.34s.25-.26.37-.4c.12-.14.22-.28.31-.43s.15-.29.19-.44c.02-.08.04-.18.06-.29.02-.11.02-.21.02-.3,0-.04,0-.08-.03-.11-.02-.04-.05-.05-.1-.05-.14,0-.29.03-.43.08s-.28.13-.42.22c-.13.09-.26.2-.38.33s-.23.26-.33.41c-.1.14-.18.29-.26.45-.07.15-.13.3-.17.45Z"/>
    <path class="st0" d="M92.3,21.56c0-.25.03-.5.08-.76.06-.26.11-.52.18-.76-.08,0-.15-.01-.23-.04s-.15-.05-.21-.08-.12-.08-.16-.13-.06-.11-.06-.18c0-.03,0-.06.02-.1s.03-.08.05-.12c.02-.04.05-.07.08-.1.04-.03.07-.04.12-.04h.59c.06,0,.09-.02.11-.07.02-.05.04-.1.05-.14.04-.17.07-.32.11-.44.03-.12.06-.23.08-.32.02-.09.04-.16.05-.21.01-.05.02-.1.02-.13,0-.04,0-.07,0-.11s0-.08,0-.14v-.04s0-.05,0-.09c0-.04.02-.09.04-.16.02-.05.05-.11.1-.16s.12-.07.21-.07c.08,0,.15.02.2.05s.1.07.14.13.06.11.08.18.03.13.03.2c0,.07,0,.14-.02.2l-.32,1.23c.16-.03.3-.05.42-.07.12-.02.25-.05.37-.07.13-.03.25-.05.35-.08s.18-.04.25-.06c.07-.02.13-.03.18-.04.05,0,.09-.01.12-.01.05,0,.09,0,.14.01.05,0,.09.02.13.04.04.02.07.04.09.07s.04.07.04.13c0,.07-.01.13-.04.19-.03.05-.06.1-.11.14-.04.04-.09.07-.15.1s-.11.04-.17.05c-.05,0-.11.02-.18.04-.08.02-.16.04-.25.06-.09.02-.18.04-.28.07-.1.02-.19.05-.28.07-.13.04-.25.06-.34.09s-.18.04-.24.05-.12.02-.16.03c-.04,0-.08,0-.1,0-.05.17-.1.33-.14.49-.04.16-.08.31-.1.45-.03.14-.05.26-.06.37-.01.11-.02.19-.02.26,0,.08,0,.15.02.23s.04.13.07.19.08.09.14.12c.06.03.13.05.22.05.16,0,.31-.04.46-.13.15-.08.29-.19.43-.32.14-.13.26-.27.39-.43.12-.16.23-.3.33-.44.03-.05.08-.08.14-.08.02,0,.04,0,.06,0,.02,0,.05.02.07.03.02.01.04.03.06.06.02.02.02.05.02.08,0,.02,0,.04,0,.05-.05.18-.12.36-.22.54s-.2.37-.3.55c-.04.06-.08.13-.14.19-.06.06-.12.12-.19.18-.07.06-.14.11-.21.16-.07.05-.14.1-.21.14-.11.07-.23.12-.36.14-.13.03-.26.04-.38.04-.19,0-.36-.03-.51-.1-.15-.07-.27-.16-.37-.28s-.18-.26-.23-.41c-.05-.16-.08-.33-.08-.51Z"/>
    <path class="st0" d="M96.4,22.11c.04-.17.1-.37.16-.59.06-.22.13-.46.2-.71s.14-.51.21-.77.14-.52.2-.77c0-.01.01-.03.03-.06s.04-.06.07-.08c.03-.03.07-.05.12-.07s.11-.03.17-.03c.05,0,.1,0,.14.02.05.01.09.03.12.05.04.02.07.05.09.08.02.03.03.07.03.12v.03s0,.02,0,.03l-.12.46c-.14.52-.28,1.04-.42,1.56-.14.52-.28,1.05-.41,1.57,0,.02-.01.04-.03.07s-.03.05-.05.08-.04.05-.07.07-.06.03-.11.03c-.08,0-.14-.02-.2-.05s-.11-.07-.15-.12c-.04-.05-.07-.1-.09-.15s-.03-.11-.03-.16v-.04s0-.02,0-.04l.13-.51ZM97.54,17.58c.01-.06.04-.14.08-.22s.1-.17.2-.24c.05-.03.1-.05.17-.07.07-.02.12-.03.14-.03s.06.01.09.03.06.04.08.07c.03.03.06.06.08.1.07,0,.12.03.14.08.02.05.03.1.03.17,0,.05,0,.09-.01.13s-.02.07-.02.09c-.02.06-.05.12-.1.17-.05.05-.11.1-.17.13-.06.04-.13.06-.2.08-.07.02-.13.03-.18.03-.07,0-.12-.01-.16-.04-.04-.02-.08-.07-.14-.15-.03-.04-.05-.08-.06-.1,0-.02,0-.05,0-.06,0-.03,0-.06,0-.08,0-.03,0-.05.02-.07Z"/>
    <path class="st0" d="M98.72,21.24c.04-.18.11-.37.2-.57s.21-.4.36-.61c.15-.2.33-.4.54-.6.21-.2.45-.38.72-.55.04-.03.11-.05.2-.08.09-.03.18-.05.28-.05.11-.12.27-.18.46-.18.23,0,.42.06.58.17.16.12.29.27.39.47.03.06.06.13.09.19.03.06.05.13.07.2.02.07.03.14.05.22.01.08.02.17.02.27,0,.23-.04.47-.11.71-.07.24-.18.47-.31.7-.13.23-.3.45-.49.65-.19.21-.4.4-.64.56-.16.11-.33.2-.52.26s-.41.09-.64.09-.42-.03-.58-.09c-.17-.06-.3-.14-.41-.26-.11-.11-.19-.24-.25-.4-.05-.15-.08-.33-.08-.52s.03-.38.08-.59ZM99.45,21.3c-.02.07-.03.13-.04.19,0,.06-.01.12,0,.17,0,.1.01.19.04.27.02.08.06.15.12.21.06.06.12.11.21.14s.18.05.3.05c.22,0,.43-.06.62-.17s.36-.25.51-.42c.15-.17.27-.35.37-.54.1-.2.17-.37.21-.54.03-.1.05-.2.07-.29.02-.09.03-.17.03-.25s-.01-.15-.04-.21c-.03-.07-.06-.14-.11-.22-.03-.05-.05-.1-.08-.15s-.05-.11-.07-.16c-.02.04-.05.08-.07.11-.03.03-.07.06-.12.08-.05.02-.12.05-.21.07s-.21.04-.35.05c-.1.03-.19.08-.29.15-.1.07-.2.15-.29.24-.09.09-.19.19-.27.29s-.16.21-.23.32c-.07.11-.13.22-.18.32s-.09.2-.11.29Z"/>
    <path class="st0" d="M106.53,19.32c-.1,0-.21.02-.33.07-.12.05-.24.11-.36.19-.13.08-.25.17-.38.28s-.26.21-.38.32c-.06.05-.12.11-.18.15-.06.05-.12.08-.17.1-.04.07-.08.16-.13.26-.04.11-.09.23-.13.36-.04.13-.09.26-.12.4-.04.14-.07.26-.1.38-.01.06-.03.12-.04.18,0,.06-.02.12-.03.19s-.03.14-.04.21c-.02.08-.04.16-.06.25-.01.06-.04.1-.07.13-.03.03-.07.06-.1.08-.04.02-.07.03-.1.03-.03,0-.06,0-.07,0-.11,0-.2-.03-.27-.08-.07-.05-.1-.15-.1-.31,0-.04,0-.08,0-.13s.01-.1.03-.15c.06-.28.13-.53.19-.75s.12-.43.18-.62c.06-.19.12-.37.19-.54s.13-.34.19-.51c.07-.17.13-.35.21-.53.07-.18.15-.38.23-.61.02-.05.06-.09.14-.12.07-.03.15-.05.24-.05.11,0,.2.03.27.07.07.05.11.12.11.21,0,0,0,.02,0,.05s-.01.05-.03.08l-.19.46c.12-.1.25-.19.38-.29s.27-.18.41-.26c.14-.08.28-.14.42-.19.14-.05.28-.07.42-.07.28,0,.5.08.66.23.16.15.24.38.24.7,0,.18-.03.39-.09.62s-.14.48-.24.74c-.09.26-.2.54-.31.83-.11.29-.21.59-.3.89-.03.08-.05.15-.08.21-.03.06-.06.1-.1.13-.04.03-.08.06-.13.07-.05.01-.11.02-.19.02-.11,0-.19-.02-.24-.06-.04-.04-.07-.11-.07-.2,0-.08.01-.18.04-.3s.06-.25.11-.39c.04-.14.1-.29.16-.45.06-.16.12-.32.2-.49.05-.13.11-.27.16-.4.05-.13.1-.26.14-.39.04-.12.08-.25.1-.36.03-.11.04-.22.04-.32,0-.09-.02-.17-.06-.24-.04-.07-.11-.1-.22-.1Z"/>
  </g>
</svg>