<?xml version="1.0" encoding="UTF-8"?>
<svg id="Layer_1" xmlns="http://www.w3.org/2000/svg" version="1.1" xmlns:xlink="http://www.w3.org/1999/xlink" viewBox="0 0 185 53">
  <!-- Generator: Adobe Illustrator 29.6.1, SVG Export Plug-In . SVG Version: 2.1.1 Build 9)  -->
  <defs>
    <style>
      .st0 {
        fill-opacity: .1;
      }

      .st0, .st1, .st2 {
        fill: #29aeff;
      }

      .st2 {
        font-family: MVBoli, 'MV Boli';
        font-size: 16px;
      }

      .st3 {
        fill: url(#radial-gradient);
        fill-rule: evenodd;
      }
    </style>
    <radialGradient id="radial-gradient" cx="-868.02" cy="516.88" fx="-868.02" fy="516.88" r="1" gradientTransform="translate(17779.33 -9973.87) rotate(-60.18) scale(20.18 -20.17)" gradientUnits="userSpaceOnUse">
      <stop offset="0" stop-color="#17a7ff"/>
      <stop offset="1" stop-color="#84d0ff"/>
    </radialGradient>
  </defs>
  <path class="st0" d="M.51,30.55C.51,18.4,10.36,8.55,22.51,8.55h132c12.15,0,22,9.85,22,22s-9.85,22-22,22H22.51C10.36,52.55.51,42.7.51,30.55Z"/>
  <path class="st1" d="M172.02,3.44l10.46-2.8c1.2-.43,2.37.72,1.95,1.92l-2.67,10.64c-.66,1.92-3.32,2.08-4.21.25l-.55-1.13c-.91-1.88-2.44-3.38-4.32-4.27l-.86-.41c-1.84-.86-1.71-3.52.2-4.21Z"/>
  <text class="st2" transform="translate(42.92 35.49)"><tspan x="0" y="0">Good Offers ?</tspan></text>
  <path class="st3" d="M15.48,38.6h0s0-.01,0-.01c0-.01.02-.03.04-.05.04-.05.1-.12.17-.21.14-.19.33-.46.53-.78.36-.59.74-1.32.92-2.07-1.17-1.66-1.85-3.69-1.85-5.87,0-5.64,4.57-10.21,10.21-10.21s10.21,4.57,10.21,10.21-4.57,10.21-10.21,10.21c-1.28,0-2.5-.24-3.63-.66-1.14.43-2.57.59-3.68.65-.62.03-1.17.04-1.56.03-.2,0-.36,0-.47-.01-.06,0-.1,0-.13,0h-.03s0,0,0,0h0s.04-.73.04-.73q-.04.73-.04.73c-.28-.02-.52-.19-.63-.44-.11-.26-.06-.55.12-.76ZM20.77,28.38c-.67,0-1.22.55-1.22,1.22s.55,1.22,1.22,1.22h.01c.67,0,1.22-.55,1.22-1.22s-.55-1.22-1.22-1.22h-.01ZM25.51,28.38c-.67,0-1.22.55-1.22,1.22s.55,1.22,1.22,1.22h.01c.67,0,1.22-.55,1.22-1.22s-.55-1.22-1.22-1.22h-.01ZM30.25,28.38c-.67,0-1.22.55-1.22,1.22s.55,1.22,1.22,1.22h.01c.67,0,1.22-.55,1.22-1.22s-.55-1.22-1.22-1.22h-.01Z"/>
</svg>