<?xml version="1.0" encoding="UTF-8"?>
<svg id="Layer_1" xmlns="http://www.w3.org/2000/svg" version="1.1" xmlns:xlink="http://www.w3.org/1999/xlink" viewBox="0 0 190 52">
  <!-- Generator: Adobe Illustrator 29.6.1, SVG Export Plug-In . SVG Version: 2.1.1 Build 9)  -->
  <defs>
    <style>
      .st0 {
        fill-opacity: .1;
      }

      .st0, .st1, .st2 {
        fill: #ff745e;
      }

      .st2 {
        font-family: MVBoli, 'MV Boli';
        font-size: 16px;
      }

      .st3 {
        fill: url(#radial-gradient);
        fill-rule: evenodd;
      }
    </style>
    <radialGradient id="radial-gradient" cx="-864.5" cy="516.85" fx="-864.5" fy="516.85" r="1" gradientTransform="translate(17752.23 -9921.36) rotate(-60.18) scale(20.18 -20.17)" gradientUnits="userSpaceOnUse">
      <stop offset="0" stop-color="#ff6f58"/>
      <stop offset="1" stop-color="#ffa293"/>
    </radialGradient>
  </defs>
  <path class="st0" d="M8.5,22C8.5,9.85,18.35,0,30.5,0h137c12.15,0,22,9.85,22,22s-9.85,22-22,22H30.5c-12.15,0-22-9.85-22-22Z"/>
  <path class="st1" d="M12.99,49.11l-10.46,2.8c-1.2.43-2.37-.72-1.95-1.92l2.67-10.64c.66-1.92,3.32-2.08,4.21-.25l.55,1.13c.91,1.88,2.44,3.38,4.32,4.27l.86.41c1.84.86,1.71,3.52-.2,4.21Z"/>
  <path class="st3" d="M24.15,29.76h0s0-.01,0-.01c0-.01.02-.03.04-.05.04-.05.1-.12.17-.21.14-.19.33-.46.53-.78.36-.59.74-1.32.92-2.07-1.17-1.66-1.85-3.69-1.85-5.87,0-5.64,4.57-10.21,10.21-10.21s10.21,4.57,10.21,10.21-4.57,10.21-10.21,10.21c-1.28,0-2.5-.24-3.63-.66-1.14.43-2.57.59-3.68.65-.62.03-1.17.04-1.56.03-.2,0-.36,0-.47-.01-.06,0-.1,0-.13,0h-.03s0,0,0,0h0s.04-.73.04-.73q-.04.73-.04.73c-.28-.02-.52-.19-.63-.44-.11-.26-.06-.55.12-.76ZM29.45,19.54c-.67,0-1.22.55-1.22,1.22s.55,1.22,1.22,1.22h.01c.67,0,1.22-.55,1.22-1.22s-.55-1.22-1.22-1.22h-.01ZM34.19,19.54c-.67,0-1.22.55-1.22,1.22s.55,1.22,1.22,1.22h.01c.67,0,1.22-.55,1.22-1.22s-.55-1.22-1.22-1.22h-.01ZM38.93,19.54c-.67,0-1.22.55-1.22,1.22s.55,1.22,1.22,1.22h.01c.67,0,1.22-.55,1.22-1.22s-.55-1.22-1.22-1.22h-.01Z"/>
  <text class="st2" transform="translate(54.14 26)"><tspan x="0" y="0">Good Packs ?</tspan></text>
</svg>