<?xml version="1.0" encoding="UTF-8"?>
<svg id="Layer_1" xmlns="http://www.w3.org/2000/svg" version="1.1" xmlns:xlink="http://www.w3.org/1999/xlink" viewBox="0 0 134.25 39">
  <!-- Generator: Adobe Illustrator 29.6.1, SVG Export Plug-In . SVG Version: 2.1.1 Build 9)  -->
  <defs>
    <style>
      .st0 {
        font-family: MVBoli, 'MV Boli';
        font-size: 11.9px;
      }

      .st0, .st1, .st2 {
        fill: #8d79ff;
      }

      .st2 {
        fill-opacity: .1;
      }

      .st3 {
        fill: url(#radial-gradient);
        fill-rule: evenodd;
      }
    </style>
    <radialGradient id="radial-gradient" cx="-892.57" cy="509.2" fx="-892.57" fy="509.2" r=".74" gradientTransform="translate(17886.09 -10495.24) rotate(-60.18) scale(20.18 -20.17)" gradientUnits="userSpaceOnUse">
      <stop offset="0" stop-color="#7f68ff"/>
      <stop offset="1" stop-color="#beb2ff"/>
    </radialGradient>
  </defs>
  <path class="st2" d="M1.92,16.56C1.92,7.53,9.24.21,18.27.21h93.67c9.03,0,16.36,7.32,16.36,16.36s-7.32,16.36-16.36,16.36H18.27c-9.03,0-16.36-7.32-16.36-16.36Z"/>
  <path class="st3" d="M13.04,23.25h0s0,0,0,0c0,0,.02-.02.03-.04.03-.04.07-.09.12-.16.1-.14.25-.34.4-.58.27-.44.55-.98.69-1.54-.87-1.23-1.38-2.74-1.38-4.36,0-4.19,3.4-7.59,7.59-7.59s7.59,3.4,7.59,7.59-3.4,7.59-7.59,7.59c-.95,0-1.86-.17-2.7-.49-.85.32-1.91.44-2.74.48-.46.02-.87.03-1.16.02-.15,0-.27,0-.35,0-.04,0-.07,0-.1,0h-.03s0,0,0,0h0s.03-.54.03-.54q-.03.54-.03.54c-.21-.01-.39-.14-.47-.33-.08-.19-.05-.41.09-.57ZM16.98,15.65c-.5,0-.91.41-.91.91s.41.91.91.91h0c.5,0,.91-.41.91-.91s-.41-.91-.91-.91h0ZM20.5,15.65c-.5,0-.91.41-.91.91s.41.91.91.91h0c.5,0,.91-.41.91-.91s-.41-.91-.91-.91h0ZM24.03,15.65c-.5,0-.91.41-.91.91s.41.91.91.91h0c.5,0,.91-.41.91-.91s-.41-.91-.91-.91h0Z"/>
  <path class="st1" d="M132.1,29.58l2.08,7.77c.32.89-.53,1.76-1.43,1.45l-7.91-1.98c-1.43-.49-1.55-2.47-.19-3.13l.84-.41c1.4-.68,2.52-1.81,3.18-3.21l.3-.64c.64-1.37,2.62-1.27,3.13.15Z"/>
  <text class="st0" transform="translate(30.42 20.35)"><tspan x="0" y="0">Trip to Japan ?</tspan></text>
</svg>