<?xml version="1.0" encoding="UTF-8"?>
<svg id="Layer_1" xmlns="http://www.w3.org/2000/svg" version="1.1" viewBox="0 0 118 34">
  <!-- Generator: Adobe Illustrator 29.6.1, SVG Export Plug-In . SVG Version: 2.1.1 Build 9)  -->
  <defs>
    <style>
      .st0, .st1 {
        fill: #fff;
      }

      .st1 {
        fill-rule: evenodd;
      }

      .st2 {
        fill: #ff745e;
      }
    </style>
  </defs>
  <path class="st2" d="M5.79,14.79C5.79,7.12,12.01.9,19.68.9h84c7.67,0,13.89,6.22,13.89,13.89s-6.22,13.89-13.89,13.89H19.68c-7.67,0-13.89-6.22-13.89-13.89Z"/>
  <path class="st2" d="M8.63,31.91l-6.6,1.77c-.76.27-1.5-.45-1.23-1.22l1.68-6.72c.42-1.21,2.1-1.31,2.66-.16l.35.71c.57,1.19,1.54,2.14,2.73,2.7l.54.26c1.16.55,1.08,2.22-.12,2.66Z"/>
  <path class="st1" d="M14.97,19.63h0s0,0,0,0c0,0,.01-.02.02-.03.02-.03.05-.06.09-.11.08-.1.18-.25.29-.42.2-.32.4-.71.5-1.12-.63-.89-1-1.98-1-3.16,0-3.04,2.46-5.5,5.5-5.5s5.5,2.46,5.5,5.5-2.46,5.5-5.5,5.5c-.69,0-1.35-.13-1.95-.36-.62.23-1.38.32-1.98.35-.33.02-.63.02-.84.02-.11,0-.19,0-.25,0-.03,0-.05,0-.07,0h-.02s0,0,0,0h0s.02-.39.02-.39q-.02.39-.02.39c-.15,0-.28-.1-.34-.24-.06-.14-.03-.3.06-.41ZM17.82,14.13c-.36,0-.66.29-.66.66s.29.66.66.66h0c.36,0,.66-.29.66-.66s-.29-.66-.66-.66h0ZM20.37,14.13c-.36,0-.66.29-.66.66s.29.66.66.66h0c.36,0,.66-.29.66-.66s-.29-.66-.66-.66h0ZM22.92,14.13c-.36,0-.66.29-.66.66s.29.66.66.66h0c.36,0,.66-.29.66-.66s-.29-.66-.66-.66h0Z"/>
  <g>
    <path class="st0" d="M29.43,17.68c.18-.72.37-1.44.56-2.15.19-.71.38-1.42.56-2.15.02-.09.04-.19.07-.27.02-.09.04-.17.06-.26s.03-.17.04-.26c.01-.09.02-.18.02-.27,0-.07,0-.14-.01-.2s-.01-.13-.01-.2,0-.15.03-.23c.05-.19.11-.34.2-.43.09-.09.22-.14.4-.14.07,0,.14,0,.21.02s.14.03.2.05c.07.02.15.04.23.06s.16.02.24.02c.06,0,.12,0,.19,0s.13-.01.21-.02c.08,0,.17-.01.28-.02s.24,0,.4,0c.09,0,.19,0,.31,0,.12,0,.25.02.38.04.13.02.26.05.39.1.13.04.26.1.37.17s.22.16.31.27c.09.11.16.23.2.38.02.07.04.14.04.2s.01.12.01.18c0,.19-.05.38-.15.57-.11.21-.26.41-.45.6s-.41.36-.66.52c-.1.07-.21.14-.34.21s-.26.14-.38.2c-.12.06-.24.12-.34.18s-.17.1-.21.12c.11.05.22.11.33.17s.22.13.34.21c.12.08.23.18.35.3.12.12.24.26.37.43.13.17.26.37.4.6.14.23.28.5.43.82.04.08.06.16.06.24,0,.07-.01.13-.04.2s-.06.13-.11.18-.1.1-.16.13c-.06.03-.13.05-.2.05-.11,0-.2-.04-.28-.12-.07-.08-.14-.19-.21-.32-.07-.13-.14-.28-.21-.45-.07-.17-.16-.34-.26-.51-.11-.18-.24-.36-.38-.52-.14-.16-.28-.31-.44-.43-.15-.12-.31-.22-.48-.29s-.33-.11-.49-.11h-.07c-.1,0-.19,0-.26.03-.08.02-.15.03-.23.04-.1-.03-.17-.09-.21-.17s-.07-.17-.07-.27v-.07l-.38,1.5s-.03.11-.05.19c-.02.08-.05.17-.08.27-.03.1-.06.2-.09.31-.03.11-.06.21-.09.3-.03.1-.05.18-.07.26-.02.08-.04.13-.04.17-.04.08-.1.14-.17.19-.07.05-.14.07-.22.07-.14,0-.24-.04-.29-.13-.05-.08-.08-.18-.08-.29,0-.05,0-.09,0-.14s.01-.09.02-.13ZM31.76,12.32c-.02.06-.05.16-.08.28-.04.12-.08.26-.12.41-.04.15-.09.31-.14.49-.05.17-.1.35-.15.52-.05.18-.1.35-.15.51-.05.16-.09.31-.13.44.06-.08.16-.16.28-.22s.27-.13.43-.18c.12-.04.28-.11.46-.19.18-.08.37-.17.57-.28s.4-.22.59-.34c.2-.12.38-.25.53-.38.16-.13.28-.26.38-.38.1-.13.15-.25.15-.37s-.04-.21-.12-.28c-.08-.07-.19-.12-.31-.15-.12-.03-.26-.06-.41-.07-.15-.01-.28-.02-.41-.02-.23,0-.46.01-.68.04-.23.03-.46.08-.68.17Z"/>
    <path class="st0" d="M35.95,16.45c0-.14.04-.25.11-.35.07-.1.17-.16.29-.19.03-.07.09-.16.16-.28s.16-.25.27-.39c.11-.14.23-.28.37-.42.14-.14.29-.27.46-.38.17-.12.34-.21.54-.28.19-.07.4-.11.61-.11.18,0,.34.02.48.07.14.04.25.11.34.19.09.08.15.17.2.28.04.11.07.23.07.35,0,.11-.01.21-.04.31-.04.18-.13.33-.25.47-.12.13-.26.25-.42.35-.16.1-.34.18-.53.25-.19.07-.38.12-.57.17s-.38.08-.55.1c-.18.02-.33.04-.46.05-.03.06-.05.13-.07.22-.02.09-.03.17-.03.25,0,.18.07.33.22.43s.35.15.6.15c.15,0,.29-.02.43-.05.14-.03.27-.08.39-.13.12-.05.24-.11.34-.17.11-.06.21-.12.29-.18.11-.08.22-.14.33-.19.1-.05.19-.08.27-.08.08,0,.13.02.15.06.02.04.03.08.03.13,0,.03,0,.05,0,.07,0,.02,0,.04,0,.06-.02.08-.05.16-.1.25-.05.08-.11.15-.18.21-.33.26-.67.44-1.01.55-.35.11-.72.17-1.11.17-.08,0-.17,0-.27-.01-.1,0-.21-.03-.32-.06s-.22-.07-.33-.12c-.11-.05-.2-.12-.29-.21-.08-.09-.15-.2-.2-.33s-.08-.29-.08-.47c0-.15.02-.32.06-.5-.04,0-.08-.03-.12-.06-.04-.04-.06-.09-.06-.16ZM38.92,15.13s0-.03,0-.04v-.04c0-.09-.03-.15-.09-.19-.06-.04-.14-.06-.23-.06-.14,0-.28.04-.41.11-.13.07-.26.16-.38.27-.12.11-.22.23-.32.35-.09.12-.16.24-.21.34.23-.02.44-.05.63-.09.19-.04.35-.1.5-.16.14-.06.25-.14.34-.22.09-.08.14-.17.17-.26Z"/>
    <path class="st0" d="M40.93,17.44s.05,0,.07,0c.02,0,.04.01.07.02s.05.01.09.02c.03,0,.07,0,.12,0,.15,0,.31-.02.5-.05s.35-.07.52-.12c.16-.05.3-.11.42-.17.12-.07.18-.13.2-.2,0-.04.01-.07.01-.1,0-.05-.03-.1-.08-.15-.05-.05-.12-.1-.2-.14-.08-.04-.16-.09-.26-.12s-.18-.07-.26-.1l-.16-.07c-.08-.03-.16-.07-.24-.12s-.15-.1-.22-.16-.13-.13-.18-.21c-.05-.08-.09-.17-.12-.28-.01-.04-.02-.09-.03-.13s-.01-.09-.01-.14c0-.08.03-.18.08-.28.06-.11.13-.21.22-.32s.2-.2.32-.3c.12-.1.24-.17.37-.24.09-.07.19-.13.28-.18.09-.05.18-.1.27-.14s.18-.07.28-.09c.09-.02.19-.03.3-.03.09,0,.2,0,.31.01.11,0,.21.03.3.07.09.04.17.09.23.15.06.07.09.16.09.27,0,.03,0,.08-.01.14,0,.06-.03.11-.05.17-.02.06-.05.11-.08.15s-.07.06-.11.06c-.07,0-.13-.01-.18-.04s-.09-.06-.13-.09c-.04-.03-.08-.06-.12-.09-.04-.03-.09-.04-.15-.04-.07,0-.16.01-.25.04s-.2.06-.3.11c-.1.05-.2.1-.3.16-.1.06-.18.12-.26.19-.08.06-.14.13-.19.19-.05.06-.07.12-.07.17,0,.05.02.1.05.13.03.03.08.06.13.09.07.04.15.08.24.11s.18.08.27.11c.09.04.18.08.27.11.09.04.16.07.23.1.09.04.16.09.23.13.07.04.13.09.17.14.05.05.08.11.11.17.02.06.04.14.04.22,0,.04,0,.08,0,.12s-.02.09-.03.14c0,.05-.03.1-.05.17-.02.06-.05.13-.08.19-.03.06-.05.12-.08.17-.03.05-.05.08-.07.1-.12.11-.27.22-.44.32-.17.1-.34.19-.52.26-.18.07-.36.13-.55.18-.18.04-.35.07-.5.07-.08,0-.16-.01-.25-.04s-.18-.07-.25-.12c-.08-.05-.14-.11-.19-.17-.05-.06-.08-.13-.08-.19,0-.03,0-.07.03-.11.02-.04.04-.08.07-.11s.06-.06.09-.08.06-.04.09-.04Z"/>
    <path class="st0" d="M44.89,16.46c.05-.19.12-.4.22-.62.1-.22.23-.44.39-.66.16-.22.35-.44.58-.65.23-.21.49-.41.79-.59.05-.03.12-.06.22-.09s.2-.05.3-.06c.12-.13.29-.2.5-.2.25,0,.46.06.62.19.17.13.31.3.42.51.03.07.07.14.1.2.03.07.06.14.08.21.02.07.04.15.05.24s.02.18.02.29c0,.25-.04.5-.12.76-.08.26-.19.51-.34.76-.15.25-.32.48-.53.71-.21.23-.44.43-.69.61-.17.12-.36.22-.57.29-.21.07-.44.1-.7.1s-.46-.03-.63-.1c-.18-.07-.33-.16-.45-.28-.12-.12-.21-.26-.27-.43s-.09-.35-.09-.56.03-.41.08-.64ZM45.68,16.52c-.02.07-.03.14-.04.21,0,.06-.01.13-.01.19,0,.1.01.2.04.29.03.09.07.17.13.23.06.06.14.12.23.15.09.04.2.05.33.05.24,0,.46-.06.67-.18.21-.12.39-.27.55-.46s.3-.38.41-.59c.11-.21.19-.4.23-.58.03-.11.05-.22.07-.31.02-.1.03-.19.03-.27s-.02-.16-.04-.23c-.03-.07-.07-.15-.12-.24-.03-.05-.06-.11-.09-.17-.03-.06-.05-.12-.08-.17-.03.04-.05.08-.08.12-.03.03-.07.06-.13.09s-.13.05-.23.07-.23.04-.38.06c-.1.03-.21.09-.32.16-.11.07-.21.16-.32.26-.1.1-.2.2-.29.32-.09.11-.18.23-.25.35-.07.12-.14.23-.19.35-.06.11-.09.22-.12.31Z"/>
    <path class="st0" d="M50.08,17.79c.04-.22.09-.46.14-.73.05-.27.11-.54.17-.81.06-.27.11-.54.17-.8.05-.26.1-.5.14-.72,0-.03,0-.06,0-.08v-.08c0-.1,0-.2.02-.29s.03-.19.05-.27c.03-.12.07-.2.12-.24s.11-.06.21-.06.17.02.22.05c.06.04.1.08.13.15.03.06.05.13.06.21,0,.08.01.16.01.24,0,.04,0,.09,0,.15,0,.05,0,.1,0,.13.09-.09.18-.19.28-.28.1-.1.21-.18.32-.26s.23-.14.36-.19.26-.08.39-.08c.05,0,.11,0,.16.01.05,0,.11.02.16.04.06.02.13.04.2.06.07.03.13.06.2.11.1.08.19.18.26.3s.11.24.11.36c0,.05,0,.1-.03.15-.02.06-.04.11-.08.15s-.07.08-.12.11c-.04.03-.09.05-.15.05s-.12-.01-.2-.04c-.08-.03-.14-.06-.19-.11-.02-.02-.05-.05-.07-.08-.02-.03-.05-.07-.07-.1-.02-.03-.04-.07-.06-.1-.02-.03-.03-.05-.04-.06-.02,0-.03,0-.05,0-.02,0-.04,0-.05,0-.16,0-.31.04-.46.12-.15.08-.28.18-.41.3-.13.12-.24.25-.35.38-.11.13-.2.26-.28.36-.06.26-.13.53-.21.82-.08.29-.15.59-.23.91v.12c0,.09,0,.19,0,.29s-.02.19-.06.26c-.04.05-.08.09-.15.12-.06.03-.14.05-.23.05-.13,0-.23-.04-.3-.13s-.1-.19-.1-.31c0-.05,0-.11.02-.17Z"/>
    <path class="st0" d="M54.8,16.8c0-.27.03-.54.09-.83s.12-.56.19-.82c-.08,0-.17-.02-.25-.04s-.16-.05-.23-.09c-.07-.04-.13-.08-.17-.14-.04-.06-.07-.12-.07-.19,0-.03,0-.06.02-.11s.03-.09.05-.13c.02-.04.05-.08.09-.11.04-.03.08-.04.13-.04h.64c.06,0,.1-.03.12-.08.02-.05.04-.1.05-.15.04-.18.08-.34.12-.48.04-.13.07-.25.09-.34.02-.09.04-.17.06-.23.01-.06.02-.11.02-.14,0-.04,0-.08,0-.12,0-.04,0-.09,0-.16v-.05s0-.06,0-.1c0-.04.02-.1.05-.18.02-.06.05-.12.1-.17.05-.05.12-.08.22-.08.09,0,.16.02.22.05.06.04.11.08.15.14.04.06.07.12.09.19s.03.15.03.22c0,.08,0,.15-.02.21l-.35,1.33c.17-.03.32-.06.46-.08.13-.02.27-.05.4-.08.15-.03.27-.06.38-.08.11-.02.2-.05.27-.06.08-.02.14-.03.19-.04.05-.01.1-.02.13-.02.05,0,.1,0,.15.01s.1.02.14.04.07.05.1.08.04.08.04.14c0,.08-.02.14-.04.2-.03.06-.07.11-.12.15-.05.04-.1.08-.16.1s-.12.05-.18.06c-.05,0-.12.02-.2.04-.08.02-.17.04-.27.06s-.2.05-.3.07-.21.05-.3.08c-.15.04-.27.07-.37.1s-.19.04-.26.06c-.07.01-.13.02-.18.03s-.08,0-.11,0c-.06.18-.11.36-.16.53-.04.17-.08.34-.11.49-.03.15-.05.28-.07.4-.01.12-.02.21-.02.28,0,.09,0,.17.02.24.02.08.04.14.08.2.04.06.09.1.15.14s.15.05.24.05c.17,0,.33-.05.49-.14.16-.09.32-.21.46-.35s.29-.29.42-.46c.13-.17.25-.33.36-.48.04-.06.09-.09.15-.09.02,0,.04,0,.07,0s.05.02.08.03c.02.02.05.04.06.06.02.03.03.06.03.09,0,.03,0,.04,0,.06-.05.2-.13.39-.23.59-.11.2-.21.4-.33.6-.04.07-.09.14-.15.2-.06.07-.13.13-.2.19-.07.06-.15.12-.23.17-.08.06-.15.11-.22.15-.12.08-.25.13-.39.16-.14.03-.28.04-.41.04-.21,0-.39-.04-.55-.11-.16-.08-.29-.18-.4-.3-.11-.13-.19-.28-.25-.45-.06-.17-.09-.35-.09-.55Z"/>
    <path class="st0" d="M59.37,17.43s.05,0,.07,0c.02,0,.04.01.07.02s.05.01.09.02c.03,0,.07,0,.12,0,.15,0,.31-.02.5-.05.18-.03.35-.07.51-.12.16-.05.3-.11.42-.17s.18-.13.2-.2c0-.04.01-.07.01-.1,0-.05-.03-.1-.08-.15-.05-.05-.12-.1-.2-.14s-.16-.09-.26-.12-.18-.07-.26-.1l-.16-.07c-.08-.03-.16-.07-.24-.12s-.15-.1-.22-.16-.13-.13-.18-.21c-.05-.08-.09-.17-.12-.28-.01-.04-.02-.09-.03-.13s-.01-.09-.01-.14c0-.08.03-.18.08-.28.06-.11.13-.21.22-.32s.2-.2.32-.3c.12-.1.24-.17.37-.24.09-.07.19-.13.28-.18.09-.05.18-.1.27-.14.09-.04.18-.07.28-.09.09-.02.19-.03.3-.03.09,0,.2,0,.31.01.11,0,.21.03.3.07.09.04.17.09.23.15.06.07.09.16.09.27,0,.03,0,.08-.01.14,0,.06-.03.11-.05.17-.02.06-.05.11-.08.15s-.07.06-.11.06c-.07,0-.13-.01-.18-.04-.05-.03-.09-.06-.13-.09s-.08-.06-.12-.09c-.04-.03-.09-.04-.15-.04-.07,0-.16.01-.25.04s-.2.06-.3.11c-.1.05-.2.1-.3.16-.1.06-.18.12-.26.19-.08.06-.14.13-.19.19-.05.06-.07.12-.07.17,0,.05.02.1.05.13s.08.06.13.09c.07.04.15.08.24.11.09.04.18.08.27.11.09.04.18.08.27.11.09.04.16.07.23.1.09.04.16.09.23.13.07.04.13.09.17.14.05.05.08.11.11.17.02.06.04.14.04.22,0,.04,0,.08,0,.12,0,.04-.02.09-.03.14,0,.05-.03.1-.05.17-.02.06-.05.13-.08.19-.03.06-.05.12-.08.17-.03.05-.05.08-.07.1-.12.11-.27.22-.44.32-.17.1-.34.19-.52.26-.18.07-.36.13-.55.18-.18.04-.35.07-.5.07-.08,0-.16-.01-.25-.04-.09-.03-.18-.07-.25-.12-.08-.05-.14-.11-.19-.17-.05-.06-.08-.13-.08-.19,0-.03,0-.07.03-.11.02-.04.04-.08.07-.11s.06-.06.09-.08.06-.04.09-.04Z"/>
    <path class="st0" d="M68.02,17.4c.05-.18.1-.4.17-.64.07-.24.14-.5.21-.77.07-.27.15-.55.23-.84.08-.28.15-.56.21-.83,0-.01.01-.03.03-.06.02-.03.05-.06.08-.09.04-.03.08-.06.13-.08.05-.02.12-.03.19-.03.05,0,.11,0,.16.02s.1.03.14.05c.04.02.07.05.09.09.02.04.04.08.04.13v.03s0,.02,0,.03l-.13.5c-.15.56-.3,1.13-.45,1.69-.15.57-.3,1.14-.45,1.7,0,.02-.02.04-.03.07s-.03.06-.05.09c-.02.03-.05.05-.08.07-.03.02-.07.03-.11.03-.08,0-.16-.02-.22-.05s-.12-.08-.16-.13c-.04-.05-.08-.11-.1-.17-.02-.06-.03-.12-.03-.17v-.04s0-.03,0-.04l.14-.56ZM69.25,12.49c.02-.07.04-.15.09-.24.04-.09.11-.18.22-.26.05-.03.11-.05.19-.08.07-.02.12-.04.16-.04s.06.01.1.03c.03.02.06.05.09.07.03.03.06.07.09.1.08,0,.13.03.15.09.02.05.04.11.04.18,0,.05,0,.1-.01.14,0,.04-.02.07-.02.1-.02.07-.06.13-.11.18-.05.06-.12.1-.18.14-.07.04-.14.07-.22.09s-.14.03-.2.03c-.07,0-.13-.01-.17-.04-.04-.03-.09-.08-.15-.16-.04-.05-.05-.08-.06-.11s0-.05,0-.07c0-.03,0-.07,0-.09s.01-.05.02-.08Z"/>
    <path class="st0" d="M73.86,14.37c-.11,0-.23.03-.36.08-.13.05-.26.12-.39.21-.14.09-.27.19-.42.3-.14.11-.28.23-.42.35-.07.06-.14.11-.2.16s-.13.09-.19.11c-.04.07-.09.17-.14.29s-.1.25-.14.39c-.05.14-.09.28-.14.43-.04.15-.08.28-.11.41-.02.07-.03.13-.04.19,0,.06-.02.13-.03.2s-.03.15-.05.23c-.02.08-.04.17-.06.27-.02.06-.04.11-.08.14s-.07.06-.11.08-.07.03-.11.04c-.03,0-.06,0-.08,0-.12,0-.22-.03-.29-.09-.08-.06-.11-.17-.11-.33,0-.04,0-.09,0-.14,0-.05.01-.1.03-.16.07-.3.14-.57.2-.81.07-.24.13-.46.2-.67.07-.21.13-.4.2-.58.07-.18.14-.37.21-.55.07-.19.14-.38.22-.57s.16-.42.25-.66c.02-.05.07-.1.15-.14.08-.04.17-.05.26-.06.12,0,.22.03.3.08.08.05.12.13.12.23,0,0,0,.03,0,.05,0,.03-.02.05-.03.08l-.21.49c.13-.1.27-.21.42-.31.14-.1.29-.2.44-.28.15-.08.3-.15.46-.2s.3-.08.45-.08c.3,0,.54.08.71.24.17.16.26.42.26.76,0,.2-.03.42-.1.67-.07.25-.15.52-.26.8-.1.29-.21.59-.33.9-.12.31-.23.63-.33.96-.03.09-.06.16-.09.22-.03.06-.07.11-.11.15s-.09.06-.14.08-.12.02-.2.02c-.12,0-.21-.02-.26-.07s-.07-.12-.07-.22c0-.09.01-.2.04-.33.03-.13.07-.27.11-.42s.11-.32.17-.49c.06-.17.14-.35.21-.53.06-.15.12-.29.18-.44s.11-.29.16-.42c.05-.14.08-.27.11-.39.03-.12.04-.24.04-.34,0-.1-.02-.18-.06-.26-.04-.07-.12-.11-.24-.11Z"/>
    <path class="st0" d="M80.65,17.17c.11.04.22.08.33.13s.23.1.35.14.25.08.38.12c.13.03.27.05.42.05.17,0,.35-.02.53-.06.18-.04.35-.1.52-.18.17-.08.33-.18.49-.29s.3-.25.43-.4c.14-.16.26-.31.36-.44.1-.13.17-.25.23-.35.06-.1.1-.19.13-.27.03-.07.04-.14.04-.19,0-.08-.03-.15-.08-.21s-.12-.11-.22-.14c-.09-.04-.19-.07-.31-.08-.11-.02-.23-.03-.36-.03-.07,0-.16,0-.26,0-.1,0-.2,0-.3.01s-.2,0-.29.01c-.1,0-.18,0-.25,0-.1,0-.21-.01-.33-.04s-.22-.06-.33-.12-.21-.13-.3-.22c-.09-.09-.17-.21-.23-.34-.02-.04-.04-.1-.05-.16-.02-.06-.02-.12-.02-.19,0-.08,0-.15.02-.22.01-.07.02-.13.04-.2.04-.16.12-.32.22-.48.1-.16.23-.32.37-.48.14-.15.3-.31.47-.45.17-.15.34-.28.52-.41.18-.13.35-.24.53-.35.17-.1.33-.19.48-.26.21-.1.42-.17.64-.22s.43-.07.64-.07c.13,0,.25.02.36.05.11.03.21.08.3.14.09.06.16.14.21.24s.08.2.08.32c0,.07,0,.13-.02.18-.02.05-.04.09-.06.12-.03.03-.05.05-.08.06-.03.01-.06.02-.09.02-.08,0-.16,0-.23-.03-.07-.02-.14-.04-.21-.06-.07-.02-.13-.05-.2-.07s-.14-.03-.22-.03c-.23,0-.47.05-.71.14-.24.09-.48.21-.71.36s-.45.3-.65.48-.39.35-.55.52c-.08.09-.15.18-.19.27-.04.09-.06.17-.06.25,0,.12.05.21.15.28.1.07.22.1.37.1.09,0,.18,0,.29,0s.22,0,.33-.01c.11,0,.22,0,.33-.01.11,0,.2,0,.28,0,.2,0,.38.03.56.08s.34.14.48.24c.14.11.25.24.34.4.08.16.13.34.13.55,0,.13-.02.25-.06.38-.04.13-.09.26-.16.39-.07.13-.14.26-.23.39-.09.13-.18.25-.27.38-.17.22-.36.43-.57.63-.21.2-.43.37-.67.51-.24.15-.49.26-.75.35-.26.09-.54.13-.81.13-.12,0-.24-.01-.37-.03-.13-.02-.25-.05-.38-.1s-.24-.1-.35-.16c-.11-.07-.21-.14-.29-.22s-.15-.17-.2-.27c-.05-.1-.07-.21-.07-.33,0-.06,0-.11.03-.16s.06-.08.13-.08Z"/>
    <path class="st0" d="M86.14,20.03c.06-.26.12-.49.17-.71.05-.21.09-.42.13-.6.04-.19.08-.37.12-.55.04-.18.07-.35.11-.53s.07-.37.11-.56c.04-.19.08-.4.13-.63l.23-1.1c.04-.19.06-.35.08-.48.01-.13.02-.26.02-.37,0-.12,0-.23,0-.32,0-.09.02-.17.05-.24s.07-.11.13-.15.13-.05.23-.05c.14,0,.25.02.33.06s.14.09.18.15.06.14.07.22c0,.08.01.17.01.26.11-.08.23-.14.38-.2.14-.06.29-.11.45-.15.15-.04.31-.07.47-.09.16-.02.31-.03.45-.03.23,0,.43.04.6.12s.31.19.43.32c.11.13.2.29.26.47.06.18.08.36.08.54,0,.22-.03.42-.1.62-.07.19-.16.37-.28.54-.12.17-.26.32-.42.47-.16.14-.33.28-.52.4-.18.12-.38.23-.57.33-.2.1-.39.19-.59.27-.13.05-.25.09-.37.12-.12.03-.22.04-.31.04-.13,0-.25-.01-.38-.04s-.24-.08-.35-.14c-.06.21-.12.42-.16.62-.04.2-.08.37-.1.52-.02.09-.04.19-.06.3-.02.1-.04.21-.07.31-.02.1-.04.19-.06.28s-.04.16-.05.23c0,.04-.03.07-.07.1-.04.02-.08.05-.13.06s-.1.03-.15.04c-.05,0-.1.01-.14.01-.23,0-.35-.09-.35-.28,0-.05,0-.1.02-.16ZM87.61,17.27s.1.01.15.02c.05,0,.11.02.16.03.05,0,.09.02.13.03s.06.01.07.01c.06,0,.13,0,.2-.02s.15-.04.22-.06c.08-.03.15-.05.22-.08.07-.03.13-.06.18-.09.16-.08.32-.18.5-.29.18-.11.34-.24.49-.39.15-.15.27-.31.37-.49.1-.18.15-.38.15-.6,0-.09-.01-.17-.03-.25-.02-.08-.06-.14-.1-.2-.04-.06-.1-.1-.17-.14-.07-.03-.16-.05-.25-.05-.11,0-.21,0-.3.02-.1.01-.19.04-.28.07-.09.03-.18.07-.28.12-.09.05-.19.11-.29.18-.09.07-.19.14-.3.19-.11.06-.23.09-.36.11l-.48,1.87Z"/>
    <path class="st0" d="M94.35,18.07c0-.09.01-.2.03-.33s.03-.29.03-.48c-.1.08-.22.17-.35.27-.13.1-.26.2-.39.3-.14.1-.27.17-.41.24-.13.07-.26.1-.38.1-.09,0-.18-.01-.27-.04-.08-.03-.16-.07-.22-.11-.17-.13-.29-.27-.36-.4-.08-.13-.11-.29-.11-.47,0-.08,0-.16.02-.25.01-.09.04-.18.06-.29.12-.5.33-.96.62-1.39s.66-.79,1.09-1.09c.17-.12.34-.19.5-.23.17-.03.33-.05.5-.05.07,0,.15,0,.24.01.09,0,.17.02.25.03.07-.02.13-.03.18-.03s.09,0,.14,0c.1,0,.17.01.24.04.06.03.11.06.15.1.04.04.07.09.08.15.02.06.03.11.03.17,0,.08-.01.16-.04.23-.03.07-.05.15-.08.23l-.63,2.5c-.01.14-.02.26-.03.38,0,.11-.03.22-.06.32,0,.03-.02.06-.04.11-.01.04-.04.08-.07.12-.03.04-.07.07-.12.1-.05.03-.11.04-.19.04-.1,0-.18,0-.24-.02s-.1-.03-.13-.05c-.03-.02-.05-.05-.06-.09,0-.03-.01-.07-.01-.12ZM92.77,16.63s-.03.11-.04.19c-.01.08-.02.16-.02.25s.01.16.04.23c.03.07.08.1.17.1.13,0,.26-.03.37-.09.12-.06.22-.13.33-.21.14-.11.27-.24.42-.37.14-.14.27-.28.4-.43s.24-.31.33-.47c.1-.16.17-.32.21-.48.03-.09.05-.2.06-.32.02-.12.03-.23.03-.32,0-.04,0-.08-.03-.12s-.06-.06-.11-.06c-.16,0-.31.03-.47.09-.16.06-.31.14-.45.24-.15.1-.28.22-.42.36-.13.14-.25.29-.36.44-.11.16-.2.32-.28.48-.08.17-.14.33-.18.49Z"/>
    <path class="st0" d="M96.75,17.4c.05-.18.1-.4.17-.64.07-.24.14-.5.21-.77.07-.27.15-.55.23-.84.08-.28.15-.56.21-.83,0-.01.01-.03.03-.06.02-.03.05-.06.08-.09.04-.03.08-.06.13-.08.05-.02.12-.03.19-.03.05,0,.11,0,.16.02s.1.03.14.05c.04.02.07.05.09.09.02.04.04.08.04.13v.03s0,.02,0,.03l-.13.5c-.15.56-.3,1.13-.45,1.69-.15.57-.3,1.14-.45,1.7,0,.02-.02.04-.03.07s-.03.06-.05.09c-.02.03-.05.05-.08.07-.03.02-.07.03-.11.03-.08,0-.16-.02-.22-.05s-.12-.08-.16-.13c-.04-.05-.08-.11-.1-.17-.02-.06-.03-.12-.03-.17v-.04s0-.03,0-.04l.14-.56ZM97.99,12.49c.02-.07.04-.15.09-.24.04-.09.11-.18.22-.26.05-.03.11-.05.19-.08.07-.02.12-.04.16-.04s.06.01.1.03c.03.02.06.05.09.07.03.03.06.07.09.1.08,0,.13.03.15.09.02.05.04.11.04.18,0,.05,0,.1-.01.14,0,.04-.02.07-.02.1-.02.07-.06.13-.11.18-.05.06-.12.1-.18.14-.07.04-.14.07-.22.09s-.14.03-.2.03c-.07,0-.13-.01-.17-.04-.04-.03-.09-.08-.15-.16-.04-.05-.05-.08-.06-.11s0-.05,0-.07c0-.03,0-.07,0-.09s.01-.05.02-.08Z"/>
    <path class="st0" d="M102.59,14.37c-.11,0-.23.03-.36.08-.13.05-.26.12-.39.21-.14.09-.27.19-.42.3-.14.11-.28.23-.42.35-.07.06-.14.11-.2.16-.06.05-.13.09-.19.11-.04.07-.09.17-.14.29s-.1.25-.14.39c-.05.14-.09.28-.14.43-.04.15-.08.28-.11.41-.02.07-.03.13-.04.19,0,.06-.02.13-.03.2s-.03.15-.05.23c-.02.08-.04.17-.06.27-.02.06-.04.11-.08.14s-.07.06-.11.08-.07.03-.11.04c-.03,0-.06,0-.08,0-.12,0-.22-.03-.29-.09-.08-.06-.11-.17-.11-.33,0-.04,0-.09,0-.14,0-.05.01-.1.03-.16.07-.3.14-.57.2-.81.07-.24.13-.46.2-.67.07-.21.13-.4.2-.58.07-.18.14-.37.21-.55.07-.19.14-.38.22-.57s.16-.42.25-.66c.02-.05.07-.1.15-.14.08-.04.17-.05.26-.06.12,0,.22.03.3.08.08.05.12.13.12.23,0,0,0,.03,0,.05,0,.03-.02.05-.03.08l-.21.49c.13-.1.27-.21.42-.31.14-.1.29-.2.44-.28.15-.08.3-.15.46-.2s.3-.08.45-.08c.3,0,.54.08.71.24.17.16.26.42.26.76,0,.2-.03.42-.1.67-.07.25-.15.52-.26.8-.1.29-.21.59-.33.9-.12.31-.23.63-.33.96-.03.09-.06.16-.09.22-.03.06-.07.11-.11.15s-.09.06-.14.08-.12.02-.2.02c-.12,0-.21-.02-.26-.07s-.07-.12-.07-.22c0-.09.01-.2.04-.33.03-.13.07-.27.11-.42s.11-.32.17-.49c.06-.17.14-.35.21-.53.06-.15.12-.29.18-.44s.11-.29.16-.42c.05-.14.08-.27.11-.39.03-.12.04-.24.04-.34,0-.1-.02-.18-.06-.26-.04-.07-.12-.11-.24-.11Z"/>
    <path class="st0" d="M111.35,16.22c-.07,0-.12-.03-.18-.08-.05-.06-.09-.12-.12-.21-.03-.08-.06-.17-.08-.27-.02-.1-.03-.19-.03-.28,0-.14.02-.26.07-.34s.13-.17.26-.24c.02-.01.07-.04.14-.08.07-.04.15-.09.25-.15.09-.06.19-.12.3-.19s.21-.13.31-.19c.1-.06.19-.12.28-.17s.15-.09.19-.12c.08-.06.19-.13.3-.22.12-.09.23-.18.33-.29.11-.1.2-.22.27-.33s.11-.24.11-.36c0-.06,0-.12-.03-.17-.02-.06-.05-.1-.08-.15s-.07-.08-.11-.11-.08-.04-.13-.04c-.22,0-.44.02-.66.07-.22.05-.44.11-.67.19-.22.08-.44.18-.65.29-.21.11-.42.23-.62.37h0s-.04.03-.08.06-.08.05-.13.08-.1.05-.14.07c-.05.02-.09.03-.13.03-.04,0-.08,0-.13-.02s-.1-.04-.14-.06-.08-.06-.12-.11c-.03-.04-.05-.1-.05-.16s.03-.12.08-.19c.05-.07.12-.13.2-.2.08-.07.17-.14.28-.2.1-.07.2-.13.3-.18.1-.06.19-.1.28-.15.09-.04.16-.08.21-.1.36-.14.72-.26,1.06-.35.34-.09.7-.14,1.05-.14.15,0,.3.04.45.11s.29.17.41.29.22.26.3.41c.08.15.12.32.12.48,0,.14-.03.27-.09.4-.06.13-.15.26-.25.38-.1.12-.22.24-.35.36-.13.11-.26.22-.4.33-.14.1-.27.2-.4.29s-.25.17-.35.23c-.1.07-.2.13-.31.2-.11.07-.21.13-.31.19-.1.06-.18.12-.25.18-.07.06-.12.11-.14.16-.02.06-.03.12-.03.17s0,.1-.01.15c0,.04,0,.08,0,.13,0,.04,0,.09-.03.12-.02.04-.06.07-.11.09-.05.02-.14.04-.25.04ZM111.75,17.63c0,.11-.02.21-.07.31-.05.1-.11.18-.18.26-.08.07-.16.13-.26.18s-.2.07-.31.07c-.08,0-.16-.01-.23-.04-.07-.03-.14-.07-.19-.13s-.1-.12-.13-.19c-.03-.07-.04-.15-.04-.23,0-.11.02-.21.07-.31.05-.1.11-.19.19-.26s.17-.14.27-.18c.1-.05.2-.07.31-.07.08,0,.16.02.23.05.07.03.13.07.18.13.05.05.09.12.12.2.03.08.04.16.04.24Z"/>
  </g>
</svg>